<?xml version="1.0" encoding="UTF-8"?>
<svg width="318" height="564" viewBox="0 0 318 564" fill="none" xmlns="http://www.w3.org/2000/svg">
<!-- Back muscle overlay — paths traced from base SVG body art coordinates -->

<!-- TRAPS: traced from back SVG shoulder/upper back region (80-220, 92-153) -->
<path id="traps" d="
  M120,104 C130,96 144,92 150,92
  C156,92 170,96 180,104
  C190,112 196,120 198,128
  C200,136 196,142 188,144
  C178,148 168,146 158,142
  C152,140 150,138 148,140
  C142,146 128,148 118,144
  C110,140 106,134 106,128
  C106,120 112,110 120,104 Z
" fill="none" opacity="0"/>

<!-- BACK LEFT LAT: traced from paths 36,41,62 left lat (82-149, 134-251) -->
<path id="back_l" d="
  M114,140 C122,134 134,132 142,136
  C148,140 150,148 150,160
  C150,178 150,196 148,214
  C146,232 142,246 136,252
  C128,258 120,254 114,244
  C108,232 104,216 102,198
  C100,178 102,158 106,146
  C108,140 112,138 114,140 Z
" fill="none" opacity="0"/>

<!-- BACK RIGHT LAT: traced from paths 35,42,61 right lat (151-217, 134-251) -->
<path id="back_r" d="
  M168,136 C178,132 190,134 198,140
  C206,148 210,160 212,178
  C214,196 212,216 206,232
  C200,244 192,254 184,258
  C176,258 168,252 164,242
  C160,230 158,214 158,196
  C158,178 158,160 160,148
  C162,140 164,136 168,136 Z
" fill="none" opacity="0"/>

<!-- TRICEPS LEFT: traced from paths 14,15,54 left arm (39-107, 104-191) -->
<path id="triceps_l" d="
  M76,136 C82,130 92,132 96,140
  C100,150 100,164 98,178
  C96,190 90,198 82,200
  C74,200 66,194 62,184
  C56,172 56,156 60,144
  C64,136 70,132 76,136 Z
" fill="none" opacity="0"/>

<!-- TRICEPS RIGHT: traced from paths 6,9,53 right arm (193-269, 105-250) -->
<path id="triceps_r" d="
  M224,136 C232,130 240,132 246,140
  C252,150 256,164 256,178
  C254,192 248,200 240,202
  C232,202 224,196 220,186
  C216,174 214,158 218,146
  C220,138 222,134 224,136 Z
" fill="none" opacity="0"/>

<!-- FOREARMS LEFT: traced from paths 17,18 left forearm (22-66, 202-265) -->
<path id="forearms_l" d="
  M60,200 C68,196 76,200 78,210
  C80,224 76,240 70,254
  C64,264 56,270 48,268
  C40,264 34,254 32,242
  C28,228 30,212 38,204
  C44,198 54,196 60,200 Z
" fill="none" opacity="0"/>

<!-- FOREARMS RIGHT: traced from paths 11,12 right forearm (239-278, 133-257) -->
<path id="forearms_r" d="
  M244,200 C252,196 260,200 264,210
  C268,224 268,240 264,254
  C260,264 254,270 246,268
  C238,264 232,254 230,242
  C228,228 230,212 236,204
  C240,198 242,198 244,200 Z
" fill="none" opacity="0"/>

<!-- GLUTES LEFT: traced from paths 49,55 left glute/lower back (129-150, 183-399) adjusted to glute zone -->
<path id="glutes_l" d="
  M118,262 C126,256 138,254 148,258
  C154,262 156,270 156,280
  C156,292 152,304 146,312
  C140,318 130,320 122,314
  C114,308 110,296 110,284
  C110,272 112,264 118,262 Z
" fill="none" opacity="0"/>

<!-- GLUTES RIGHT: traced from paths 47,56 right glute region -->
<path id="glutes_r" d="
  M166,258 C176,254 188,256 196,262
  C202,268 204,278 204,288
  C204,300 200,312 194,318
  C186,322 176,320 168,314
  C160,306 158,294 158,282
  C158,270 160,262 166,258 Z
" fill="none" opacity="0"/>

<!-- HAMSTRINGS LEFT: traced from paths 30-34,49,58 left ham (90-150, 296-412) -->
<path id="hamstrings_l" d="
  M114,306 C122,298 132,296 140,302
  C146,310 148,324 148,342
  C146,360 142,378 136,390
  C130,400 122,404 114,398
  C106,390 100,374 98,356
  C96,336 98,318 104,308
  C108,302 112,300 114,306 Z
" fill="none" opacity="0"/>

<!-- HAMSTRINGS RIGHT: traced from paths 37-40,57 right ham (174-217, 295-395) -->
<path id="hamstrings_r" d="
  M184,302 C192,296 202,298 208,308
  C214,320 216,338 214,358
  C212,376 206,392 198,400
  C190,406 182,402 176,392
  C170,380 166,362 166,342
  C166,322 170,308 176,302
  C180,298 182,300 184,302 Z
" fill="none" opacity="0"/>

<!-- CALVES LEFT: traced from paths 43,52,60 left calf (90-146, 390-469) -->
<path id="calves_l" d="
  M110,404 C118,396 128,396 134,404
  C138,414 138,428 134,444
  C130,458 124,468 118,472
  C112,474 106,468 102,458
  C98,444 96,428 100,414
  C104,404 108,400 110,404 Z
" fill="none" opacity="0"/>

<!-- CALVES RIGHT: traced from paths 45,51,59 right calf (163-209, 390-469) -->
<path id="calves_r" d="
  M188,404 C196,396 204,398 208,408
  C212,420 212,436 208,450
  C204,462 198,470 192,474
  C186,476 180,470 176,460
  C172,446 172,430 174,416
  C178,404 184,398 188,404 Z
" fill="none" opacity="0"/>

</svg>
