<svg width="318" height="564" viewBox="0 0 318 564" fill="none" xmlns="http://www.w3.org/2000/svg">
<g clip-path="url(#clip0_1_3)">
<path d="M-347 -437H549V755H-347V-437Z" fill="#E6E7E7"/>
<path d="M124.388 71.0161C117.556 66.4524 112.317 58.4879 113.476 49.9896C114.653 47.4182 118.179 47.2029 118.19 45.7815C118.042 32.9722 115.622 19.5977 128.088 11.4295C143.172 1.89056 173.127 3.25541 179.528 23.0631C183.075 34.039 176.63 42.7224 185.341 49.8767C188.175 52.2037 183.79 61.2583 182.112 63.7581C179.699 67.3534 178.427 68.3772 174.709 70.799C174.029 74.9995 173.681 79.0324 173.283 83.2585C188.295 87.8979 196.354 91.7149 207.679 102.639C236.815 100.799 253.227 118.067 250.223 146.987C254.956 151.288 259.066 155.886 261.413 161.922C264.079 168.784 263.182 175.687 263.91 182.834C264.411 187.799 265.855 192.822 267.141 197.635C268.119 201.285 270.53 204.276 272.562 207.413C277.58 215.166 279.641 223.384 280.369 232.511C280.893 239.053 280.369 245.659 280.41 252.218C280.468 261.705 280.817 271.256 280.945 280.761C281.05 288.17 282.476 296.173 281.318 303.483C280.835 306.539 279.024 309.746 276.992 312.051C274.128 315.293 270.21 317.423 265.831 317.621C260.714 317.848 253.861 315.025 250.304 311.428C248.074 309.17 247.364 306.3 246.916 303.268C244.442 286.517 258.705 279.323 257.681 273.445C256.877 268.829 254.741 264.394 252.709 260.204C244.028 242.295 232.658 229.467 233.56 208.03C232.614 207.495 231.677 206.948 230.75 206.383C221.676 200.871 217.959 194.731 215.508 184.732C210.507 192.863 205.491 197.915 200.917 205.173C198.277 250.524 212.172 292.175 215.841 336.7C217.352 356.611 197.503 374.584 199.728 393.361C202.615 417.713 215.678 422.503 209.164 450.085C205.363 466.179 184.717 522.059 199.18 534.509C199.348 534.445 199.513 534.375 199.682 534.323C207.596 531.762 271.892 540.714 280.934 545.76C282.156 546.441 282.855 547.034 283.519 548.251C282.389 555.817 244.302 559.606 236.634 560.322C187.102 564.85 137.284 565.357 87.67 561.83C76.2299 560.957 23.632 557.057 18.4958 549.322C21.114 539.87 96.8577 531.884 104.172 535.097C104.933 534.643 106.881 533.444 107.049 532.734C108.427 526.914 107.784 525.563 110.784 520.005C109.111 491.701 95.8354 465.474 92.0784 437.962C89.7718 421.071 107.123 403.104 102.178 384.479C100.603 378.548 99.1859 374.299 95.826 368.944C82.7912 347.502 85.6737 329.448 89.6099 305.986C92.2694 290.137 94.65 272.665 97.0446 256.368C99.4257 240.164 99.1387 221.691 98.9245 205.103C94.1842 197.432 89.0836 193.59 84.4348 184.237C84.153 185.674 83.8473 187.106 83.5195 188.532C81.182 198.421 75.0137 203.036 66.8885 208.089V208.572C66.8449 217.535 65.1041 226.411 61.7576 234.722C57.9949 244.128 44.1497 263.079 43.178 274.359C46.5303 282.466 52.4151 285.807 54.3946 294.98C57.3708 308.78 51.1378 314.263 38.3761 317.702C30.503 319.833 20.3559 310.055 20.3449 302.197C20.3216 285.749 20.2581 268.998 20.6563 252.527C20.4473 229.205 18.1238 218.978 33.3872 199.632C33.8361 190.296 37.4405 182.869 36.6725 172.614C35.9454 162.905 42.3915 153.96 49.5403 147.487C49.1118 141.88 48.7368 136.248 49.8285 130.688C53.4427 112.273 72.8584 99.4407 91.2232 103.173C102.95 92.2305 110.488 88.101 125.654 83.4163C125.398 78.6913 125.169 75.7637 124.388 71.0161Z" fill="#595A5E"/>
<path d="M199.18 534.509C199.348 534.445 199.513 534.375 199.682 534.323C207.596 531.762 271.892 540.714 280.934 545.76C282.156 546.441 282.855 547.034 283.519 548.251C282.389 555.817 244.302 559.606 236.634 560.322C187.102 564.85 137.284 565.357 87.67 561.83C76.2299 560.957 23.632 557.057 18.4958 549.322C21.114 539.87 96.8577 531.884 104.172 535.097C99.7459 537.71 95.6793 539.887 91.8368 543.327C91.9608 544.91 91.9148 547.698 93.4693 548.455C100.133 551.708 128.768 555.218 134.465 552.732C137.055 549.351 136.779 547.896 136.925 543.659C136.544 540.941 136.067 539.223 135.359 536.587C137.394 537.891 138.416 537.774 140.773 537.891C139.321 538.88 138.914 539.101 137.743 540.376L137.618 541.54C139.582 541.447 147.463 541.202 148.879 540.772C146.444 540.789 142.887 541.005 140.707 540.324L140.637 539.887C143.731 539.026 155.48 538.915 158.72 539.468L159.381 540.102L158.655 540.824L158.944 540.667C160.303 541.272 161.95 541.028 163.41 540.993L162.564 540.434L163.383 539.253L161.753 538.467L161.896 537.844C163.637 537.78 166.152 538.112 167.948 538.286C167.45 541.627 165.535 553.454 171.75 553.489C179.15 553.524 210.908 553.099 212.534 544.741C211.002 540.719 203.231 536.948 199.18 534.509Z" fill="#CFD0D1"/>
<path d="M136.925 543.659C140.958 542.692 172.927 537.984 165.267 550.224C163.531 551.33 162.121 552.156 160.042 552.476C153.253 553.053 141.573 552.732 134.465 552.732C137.055 549.351 136.779 547.896 136.925 543.659Z" fill="#9A9B9D"/>
<path d="M126.225 556.976L125.584 556.871C126.243 556.207 127.866 556.079 128.959 555.875L129.361 555.8C118.895 551.947 93.4018 556.219 90.2387 544.677C90.9129 543.467 90.4401 543.95 91.8368 543.327C91.9608 544.91 91.9148 547.698 93.4693 548.455C100.133 551.708 128.768 555.218 134.465 552.732C141.573 552.732 153.253 553.053 160.042 552.476C162.61 552.5 162.883 552.11 164.961 553.285C164.104 554.176 163.818 553.862 162.132 553.943C163.429 554.31 164.205 554.269 165.531 554.316L165.77 555.014L163.88 555.893C173.063 556.335 183.927 555.113 191.589 555.678L192.186 556.463L192.724 556.271C188.223 558.064 186.352 557.517 181.449 557.208C178.479 556.097 133.412 557.063 126.225 556.976Z" fill="#B9B9BB"/>
<path d="M135.36 536.587C134.334 530.837 137.031 528.572 136.619 522.962C136.39 519.836 133.874 514.79 133.563 511.979C132.528 500.385 133.268 486.515 136.127 475.2C138.177 467.087 141.199 462.395 142.116 453.479C143.369 441.285 139.993 430.954 139.577 419.343C139.322 412.236 145.791 399.443 146.411 391.894C148.206 374.462 147.933 356.472 150.654 339.028C154.859 355.115 154.079 373.065 155.791 389.601C156.722 398.593 162.918 410.484 163.098 418.988C163.328 429.837 159.268 441.902 161.128 453.188C161.926 462.337 165.654 468.064 167.451 475.788C171.075 491.375 172.595 507.247 167.504 522.572C166.41 525.866 170.032 531.529 167.948 538.287C166.152 538.112 163.637 537.78 161.896 537.844L161.753 538.467L163.383 539.253L162.564 540.434L163.41 540.993C161.95 541.028 160.303 541.272 158.944 540.667L158.655 540.824L159.381 540.102L158.72 539.468C155.48 538.915 143.731 539.026 140.637 539.887L140.707 540.324C142.887 541.005 146.444 540.789 148.879 540.772C147.463 541.203 139.582 541.447 137.618 541.54L137.743 540.376C138.914 539.101 139.321 538.88 140.773 537.891C138.416 537.774 137.394 537.891 135.36 536.587Z" fill="#E6E7E7"/>
<path d="M219.901 178.97C216.776 173.149 219.041 139.173 221.722 133.183C225.021 131.708 231.284 136.152 233.985 138.033C251.172 150.008 264.62 160.851 260.475 183.975C260.417 184.103 260.359 184.231 260.301 184.359L259.625 186.495C263.997 190.988 263.759 194.865 264.469 201.04C265.861 202.868 268.329 205.941 269.447 207.768L270.693 209.491C277.726 221.097 278.174 234.332 277.598 247.48C277.481 250.123 277.644 254.907 277.37 257.293C276.375 257.881 276.264 257.841 275.461 258.632C275.95 259.226 277.65 261.304 277.749 262.014C278.977 271.838 278.034 282.03 278.704 291.994C279.513 304.106 277.947 311.69 265.249 315.246C260.947 314.146 253.553 311.475 251.375 307.924C242.555 293.571 259.026 283.764 260.877 274.161C261.971 268.492 252.068 258.23 252.872 249.628L250.648 249.436C241.694 238.185 234.178 220.049 237.28 205.603C236.465 205.743 235.476 205.708 234.632 205.725C224.07 198.101 218.438 193.142 217.81 179.33L218.566 179.319L219.901 178.97Z" fill="#E6E7E7"/>
<path d="M219.901 178.97C216.776 173.149 219.041 139.173 221.722 133.183C225.021 131.708 231.284 136.152 233.985 138.033C251.172 150.008 264.62 160.851 260.475 183.975C260.417 184.103 260.359 184.231 260.301 184.359C255.468 178.178 255.171 172.951 246.281 172.142C244.395 165.81 242.922 162.585 239.726 156.881L239.178 157.97C245.577 170.059 243.248 174.331 246.858 186.652C248.092 190.866 255.841 199.882 255.259 202.874C247.888 208.333 242.858 190.721 234.632 205.725C224.07 198.101 218.438 193.142 217.81 179.33L218.566 179.319L219.901 178.97Z" fill="#E6E7E7"/>
<path d="M219.901 178.97C224.338 184.889 228.229 189.382 235.65 191.332C228.05 191.547 222.647 185.092 218.566 179.319L219.901 178.97Z" fill="#9A9B9D"/>
<path d="M239.179 157.97C237.95 156.253 235.266 152.988 235.476 151.067C237.374 151.864 238.818 155.007 239.726 156.881L239.179 157.97Z" fill="#B9B9BB"/>
<path d="M253.99 236.172L254.449 236.748C260.574 244.401 262.484 262.846 268.911 266.722C272.864 265.756 271.991 257.264 272.008 253.749L275.461 258.632C275.95 259.226 277.65 261.304 277.749 262.014C278.977 271.838 278.034 282.03 278.704 291.994C279.513 304.106 277.947 311.69 265.249 315.246C260.947 314.146 253.553 311.475 251.375 307.924C242.555 293.571 259.026 283.764 260.877 274.161C261.971 268.492 252.068 258.23 252.872 249.628C253.885 245.868 253.926 240.089 253.99 236.172Z" fill="#E6E7E7"/>
<path d="M239.178 157.97L239.726 156.881C242.922 162.585 244.395 165.81 246.281 172.142C255.171 172.951 255.468 178.178 260.301 184.359L259.625 186.495C263.997 190.988 263.759 194.865 264.469 201.04C265.861 202.868 268.329 205.941 269.447 207.768L270.693 209.491C277.726 221.097 278.174 234.332 277.598 247.48C277.481 250.123 277.644 254.907 277.37 257.293C276.375 257.881 276.264 257.841 275.461 258.632L272.008 253.749C271.991 257.264 272.864 265.756 268.911 266.722C262.484 262.846 260.574 244.401 254.449 236.748L253.99 236.172C253.925 240.089 253.885 245.868 252.872 249.628L250.648 249.436C251.608 245.589 250.927 235.066 254.589 234.018C261.5 237.405 264.958 262.799 269.132 263.067C270.635 257.829 268.771 250.775 268.661 245.373C268.405 232.481 268.114 223.186 262.862 211.185C258.682 208.607 259.788 207.739 256.743 205.306C248.202 207.373 246.322 202.466 240.692 201.867C238.928 202.6 238.363 203.939 237.28 205.603C236.465 205.743 235.476 205.708 234.632 205.725C242.858 190.721 247.888 208.333 255.259 202.874C255.841 199.882 248.092 190.866 246.858 186.652C243.248 174.331 245.577 170.059 239.178 157.97Z" fill="#66686D"/>
<path d="M270.693 209.491C277.726 221.097 278.174 234.332 277.598 247.48C277.481 250.123 277.644 254.907 277.37 257.293C275.711 255.285 270.966 251.246 270.734 250.623C268.515 244.681 269.819 235.438 269.022 229.111C268.236 222.849 266.221 216.639 264.69 210.655C266.856 210.353 268.574 209.963 270.693 209.491Z" fill="#E6E7E7"/>
<path d="M269.447 207.768C268.393 208.158 264.807 209.363 263.939 208.717C258.263 204.486 244.412 180.366 246.811 174.307C251.457 173.952 255.818 182.549 259.066 185.919L259.625 186.495C263.997 190.988 263.759 194.865 264.469 201.04C265.861 202.868 268.329 205.941 269.447 207.768Z" fill="#E2E2E3"/>
<path d="M40.1209 183.568C38.8197 181.676 38.9082 172.486 39.3093 169.989C40.9313 159.396 48.6809 151.742 56.6867 145.637C59.0434 143.84 76.5832 129.213 78.1156 134.078C81.3538 144.358 81.4801 165.699 81.8189 176.368L81.4003 177.124C79.2957 180.89 74.3354 188.078 69.8985 189.33C66.9898 190.15 67.0894 189.353 65.6415 191.384C72.5364 191.815 78.8852 182.974 82.485 178.085C80.6487 187.985 79.3417 196.244 70.3153 202.379C68.8918 203.351 66.8641 204.887 65.2741 205.382L63.0716 206.092C65.9279 221.766 58.2272 237.382 49.659 249.96C49.3225 246.113 49.0413 241.352 48.2902 237.644C47.049 239.658 47.212 242.324 47.0729 244.809C47.2673 247.725 47.5637 250.641 47.9613 253.539C42.5166 265.087 35.2025 274.749 46.3312 285.033C52.8844 291.092 53.2826 301.109 49.9315 309.135C39.2819 316.748 26.1487 318.389 22.9467 301.475C21.8556 295.719 23.838 288.374 23.5388 282.501C23.8729 273.963 20.7163 265.977 25.5287 258.329L23.6534 256.764C22.1741 237.848 22.014 227.942 29.1692 210.079L30.3959 208.333C32.6408 205.702 34.3775 203.438 36.4356 200.65C36.63 192.857 36.2201 191.128 41.5513 185.657L40.1209 183.568Z" fill="#66686D"/>
<path d="M40.1209 183.568C38.8197 181.676 38.9082 172.486 39.3094 169.989C40.9314 159.396 48.681 151.742 56.6867 145.637C59.0435 143.84 76.5833 129.213 78.1156 134.078C81.3538 144.358 81.4802 165.699 81.819 176.368L81.4004 177.124C79.2958 180.89 74.3354 188.078 69.8985 189.33C66.9899 190.15 67.0894 189.353 65.6415 191.384C72.5365 191.815 78.8853 182.974 82.485 178.085C80.6488 187.985 79.3417 196.244 70.3154 202.379C68.8919 203.351 66.8641 204.887 65.2741 205.382C59.0074 190.22 49.5857 210.946 44.8489 202.321C45.7362 198.933 51.256 192.601 53.1674 187.17C55.6033 180.25 55.6318 176.572 56.9394 169.366C58.1044 162.946 61.7484 156.649 64.9761 151.049C60.0682 156.247 55.8711 165.123 54.0116 171.997C44.2615 174.226 46.1176 177.689 40.1209 183.568Z" fill="#E6E7E7"/>
<path d="M46.3754 235.601C46.4889 239.035 46.5757 241.427 47.0729 244.809C47.2673 247.725 47.5637 250.641 47.9613 253.539C42.5166 265.087 35.2025 274.749 46.3312 285.033C52.8844 291.092 53.2826 301.109 49.9315 309.135C39.2819 316.748 26.1487 318.389 22.9467 301.475C21.8556 295.719 23.838 288.374 23.5388 282.501C23.8729 273.963 20.7163 265.977 25.5287 258.329L27.4226 256.083L28.41 256.019C30.2736 259.179 28.5998 265.582 30.666 268.125L31.8188 267.84C39.6027 260.343 40.3951 247.224 46.3754 235.601Z" fill="#E6E7E7"/>
<path d="M43.4563 205.504C54.1431 207.454 54.8214 202.088 60.3662 202.35C62.0726 203.426 62.1786 204.16 63.0717 206.092C65.9279 221.766 58.2272 237.382 49.659 249.96C49.3225 246.113 49.0413 241.352 48.2903 237.644C48.1104 235.234 48.5103 235.881 47.1608 234.35L45.9446 234.455C39.4747 239.559 36.9538 256.484 32.0249 265.069L31.601 265.803C30.8471 253.568 32.5087 239.617 33.1858 227.249C33.6591 218.612 38.1519 212.075 43.4563 205.504Z" fill="#E6E7E7"/>
<path d="M29.1692 210.079C31.6523 210.486 34.0201 210.917 36.5328 211.098C29.3054 228.238 32.8598 234.542 31.0876 250.001C29.4626 251.345 24.3649 256.257 23.6535 256.764C22.1741 237.848 22.014 227.942 29.1692 210.079Z" fill="#E6E7E7"/>
<path d="M41.5513 185.657C44.2149 182.206 48.1313 176.187 52.439 175.093L53.3717 175.658C54.4505 181.903 42.8729 201.983 39.3099 207.087C38.8313 207.768 38.3208 208.42 37.7811 209.055C35.6083 208.88 32.4569 208.729 30.3959 208.333C32.6409 205.702 34.3775 203.438 36.4356 200.65C36.63 192.857 36.2202 191.128 41.5513 185.657Z" fill="#E2E2E3"/>
<path d="M203.246 196.39C202.481 197.414 198.872 202.21 198.785 202.943C197.341 214.957 198.442 242.021 200.068 253.184C200.326 254.942 200.616 256.694 200.936 258.44C200.937 259.488 200.986 259.43 200.487 260.337C202.41 262.788 206.188 287.885 206.543 292.308L205.908 293.344L206.317 295.213C202.604 297.267 194.671 299.526 190.458 299.916C188.797 299.619 187.888 299.24 186.427 300.02C182.143 300.649 179.144 300.678 174.856 300.765C174.677 305.439 174.447 310.13 174.502 314.804C173.171 312.621 175.292 312.534 172.85 310.328C172.709 307.488 172.823 303.588 172.818 300.661C163.933 299.339 160.723 298.222 152.427 295.12L152.277 302.925C151.436 298.012 151.519 296.936 153.158 292.343C150.646 287.74 151.359 259.424 151.586 253.266C155.061 251.502 159.586 245.635 162.46 242.376C162.95 239.862 162.44 240.636 164.144 239.064L164.519 238.645C178.648 222.604 184.047 208.112 203.246 196.39Z" fill="#E6E7E7"/>
<path d="M203.246 196.39C202.481 197.414 198.872 202.21 198.785 202.943C197.341 214.957 198.442 242.021 200.068 253.184C200.326 254.942 200.616 256.694 200.936 258.44C199.508 257.841 195.069 254.267 193.656 253.109C182.491 243.942 178.669 242.248 164.699 239.961L164.144 239.064L164.519 238.645C178.648 222.604 184.047 208.112 203.246 196.39Z" fill="#E6E7E7"/>
<path d="M153.158 292.343C175.657 299.712 182.676 300.952 205.908 293.344L206.317 295.213C202.604 297.267 194.671 299.526 190.458 299.916C188.797 299.619 187.888 299.24 186.427 300.02C182.143 300.649 179.144 300.678 174.856 300.765C174.677 305.439 174.447 310.13 174.502 314.804C173.171 312.621 175.292 312.534 172.85 310.328C172.709 307.488 172.823 303.588 172.818 300.661C163.933 299.339 160.723 298.222 152.427 295.12L152.277 302.925C151.436 298.012 151.519 296.936 153.158 292.343Z" fill="#5E5E60"/>
<path d="M162.46 242.376C162.95 239.862 162.44 240.636 164.144 239.064L164.699 239.961C178.669 242.248 182.491 243.942 193.656 253.109C195.069 254.267 199.508 257.841 200.936 258.44C200.937 259.488 200.986 259.43 200.487 260.337C193.64 259.313 184.814 242.492 162.46 242.376Z" fill="#66686D"/>
<path d="M172.42 250.379C182.73 250.344 190.371 259.069 197.055 265.803C194.696 265.366 193.86 264.464 192.207 262.765C184.599 254.93 182.32 254.255 172.42 250.379Z" fill="#B9B9BB"/>
<path d="M96.9415 196.96C112.911 205.434 124.868 225.934 137.306 240.269C138.641 241.416 138.255 240.729 138.663 242.3C141.437 245.513 146.035 251.828 149.344 253.632C149.632 261.49 149.587 283.351 148.839 291.593C129.374 299.782 115.197 301.132 94.6681 293.368C95.2537 288.607 98.3551 263.032 100.18 260.873L99.9404 259.284C99.4508 256.717 100.814 249.279 100.9 246.014C101.244 233.005 103.409 216.895 100.968 204.201C100.606 202.321 97.9918 198.537 96.9415 196.96Z" fill="#E6E7E7"/>
<path d="M96.9415 196.96C112.911 205.434 124.868 225.934 137.306 240.269C124.091 241.032 117.222 244.611 107.273 253.318C105.772 254.634 101.401 258.481 99.9404 259.284C99.4508 256.717 100.814 249.279 100.9 246.014C101.244 233.005 103.409 216.895 100.968 204.201C100.606 202.321 97.9918 198.537 96.9415 196.96Z" fill="#E6E7E7"/>
<path d="M137.306 240.269C138.641 241.416 138.255 240.729 138.663 242.3C124.663 242.783 119.098 246.741 108.199 255.291C106.034 256.991 102.621 259.715 100.18 260.873L99.9404 259.284C101.401 258.481 105.772 254.634 107.273 253.318C117.222 244.611 124.091 241.032 137.306 240.269Z" fill="#66686D"/>
<path d="M125.516 250.315L126.413 250.449L126.594 251.025C115.884 255.373 113.957 257.433 105.802 265.663L104.699 265.756L104.532 265.18C112.339 257.2 115.033 254.075 125.516 250.315Z" fill="#B9B9BB"/>
<path d="M143.149 9.01751C191.269 5.51601 172.987 41.2632 179.127 49.333C180.682 49.691 181.212 49.6613 182.286 50.8446C184.178 58.1578 178.486 65.0753 172.444 68.4272C171.197 73.5997 170.922 76.7112 170.415 81.9641C168.02 81.2284 165.998 80.3635 163.698 79.4084C159.755 72.1592 160.699 64.4432 154.362 59.8399C138.71 55.5718 141.086 68.6431 136.129 77.8433C134.416 81.0206 132.092 81.1574 128.763 81.8837C128.611 80.0736 128.149 73.8599 127.604 72.6487C124.105 64.8721 117.759 64.5293 116.306 54.395C114.99 48.0887 120.54 52.5948 120.573 47.6277C120.708 27.8881 118.694 13.0405 143.149 9.01751Z" fill="#E6E7E7"/>
<path d="M94.2669 295.626C100.616 297.646 104.196 298.926 110.797 299.98C112.159 300.94 112.278 300.8 113.922 300.789C116.984 300.346 122.577 300.102 125.464 301.016C127.835 305.224 126.817 315.136 127.034 320.258C127.525 331.828 127.156 336.054 122.204 346.682C119.37 352.764 120.537 368.607 115.716 374.718C112.906 378.28 107.234 377.198 103.213 376.534C101.688 373.327 100.459 371.051 99.6621 367.588C98.3231 367.46 98.9541 367.687 97.8189 366.651C92.3893 357.927 85.4722 337.719 91.2249 328.278L89.8981 325.769C89.6163 323.465 93.6189 299.683 94.2669 295.626Z" fill="#E6E7E7"/>
<path d="M94.2669 295.626C100.616 297.646 104.196 298.926 110.797 299.98C107.115 303.46 105.626 305.043 102.471 308.792C99.7122 312.068 92.2362 324.215 89.8981 325.769C89.6163 323.465 93.6189 299.683 94.2669 295.626Z" fill="#E6E7E7"/>
<path d="M110.797 299.98C112.159 300.94 112.278 300.8 113.922 300.789C101.7 310.91 100.347 317.784 91.225 328.278L89.8981 325.769C92.2362 324.215 99.7122 312.068 102.471 308.792C105.626 305.043 107.115 303.46 110.797 299.98Z" fill="#66686D"/>
<path d="M97.6297 333.318L98.6636 334.564C96.683 343.242 97.83 358.87 99.6621 367.588C98.3231 367.46 98.9542 367.687 97.8189 366.651C96.3657 351.664 95.4313 348.771 97.6297 333.318Z" fill="#66686D"/>
<path d="M97.6297 333.318C98.2264 330.42 98.7399 327.056 100.039 324.46C100.39 326.846 99.1399 331.863 98.6637 334.564L97.6297 333.318Z" fill="#B9B9BB"/>
<path d="M177.205 148.116C187.87 154.093 204.512 154.844 216.653 153.61C216.264 167.835 216.934 186 203.487 194.597C198.802 197.589 194.054 199.585 189.899 203.409C187.272 206.238 183.171 211.604 180.613 214.77C170.713 202.908 162.738 197.659 159.608 180.57C165.611 168.825 170.984 161.753 177.205 148.116Z" fill="#E6E7E7"/>
<path d="M121.159 149.105L122.367 149.303C123.962 151.672 125.198 154.262 126.497 156.8C130.661 164.954 135.297 172.8 140.14 180.57C137.212 196.221 129.706 203.281 119.401 214.601L111.283 204.823C104.803 198.275 101.42 198.793 94.7402 193.549C82.4535 183.911 84.3265 168.26 83.1097 153.494C95.2991 155.939 109.769 153.907 121.159 149.105Z" fill="#E6E7E7"/>
<path d="M206.317 295.213C208.299 297.174 211.756 322.114 211.727 326.014L210.103 327.376C217.133 337.526 209.219 355.872 204.402 365.982C206.445 351.99 206.709 346.466 204.435 332.323L203.69 333.074C205.273 348.428 206.677 362.874 198.429 376.394C179.676 379.945 184.81 365.97 181.589 353.323C180.269 348.137 177.842 340.495 174.896 336.153C174.991 329.035 174.86 321.916 174.502 314.804C174.447 310.13 174.677 305.439 174.856 300.765C179.144 300.678 182.143 300.649 186.427 300.02C187.888 299.24 188.797 299.619 190.458 299.916C194.671 299.526 202.604 297.267 206.317 295.213Z" fill="#E6E7E7"/>
<path d="M206.317 295.213C208.299 297.174 211.756 322.114 211.727 326.014C209.527 323.412 206.111 317.912 204.024 314.909C199.466 308.343 196.226 305.061 190.458 299.916C194.671 299.526 202.604 297.267 206.317 295.213Z" fill="#E6E7E7"/>
<path d="M186.427 300.02C187.888 299.24 188.797 299.619 190.458 299.916C196.226 305.061 199.466 308.343 204.024 314.909C206.111 317.912 209.527 323.412 211.727 326.014L210.103 327.376C208.982 326.218 206.412 322.295 205.417 320.84C199.414 312.057 195.583 305.969 186.427 300.02Z" fill="#66686D"/>
<path d="M203.689 333.074C202.983 331.171 201.851 327.137 202.084 325.135C203.446 326.893 203.896 330.024 204.435 332.323L203.689 333.074Z" fill="#B9B9BB"/>
<path d="M126.635 92.8772C129.915 92.4791 133.45 92.7375 136.774 92.8748C140.735 95.0283 145.189 99.8074 148.493 103.071C148.368 130.415 148.973 157.295 148.496 184.784C141.551 179.953 139.077 174.715 134.822 167.527C129.381 157.935 122.968 146.574 119.943 135.867C118.224 129.782 121.658 117.408 116.611 112.573C112.246 108.389 104.487 108.296 98.9431 108.25L93.4803 104.849C103.551 96.3827 113.742 94.0552 126.635 92.8772Z" fill="#E6E7E7"/>
<path d="M163.439 92.7474C178.43 91.6526 194.161 94.9487 205.9 104.697L200.802 107.866C174.32 107.189 182.059 120.295 178.773 137.805C177.967 142.099 171.622 154.839 169.38 159.285C164.856 167.998 158.947 179.319 150.743 184.551L150.83 102.955C153.969 99.2638 158.811 94.2496 163.439 92.7474Z" fill="#E6E7E7"/>
<path d="M120.162 452.611C123.588 454.771 123.646 465.16 133.918 471.65C129.721 490.222 127.839 505.658 134.27 523.881C133.83 525.517 132.742 529.632 132.644 530.93C131.678 543.635 139.753 553.763 120.052 550.27C115.063 549.386 107.029 548.798 101.401 547.791C98.7393 547.052 97.6704 547.256 96.1235 545.434C97.1517 541.103 105.039 539.451 110.152 534.061L110.619 533.56C110.319 525.307 113.812 522.898 113.327 516.996C111.927 499.931 105.456 478.867 100.68 462.477C114.017 472.674 116.977 464.945 120.162 452.611Z" fill="#E6E7E7"/>
<path d="M106.109 469.706C106.234 469.81 106.359 469.909 106.483 470.014C114.661 483.488 121.36 513.527 120.302 528.159C119.167 525.651 119.174 521.495 118.901 518.678C117.26 501.717 112.437 485.415 106.109 469.706Z" fill="#66686D"/>
<path d="M182.135 452.617C187.942 458.152 182.988 475.386 202.142 462.867C197.997 480.048 192.204 498.493 190.538 516.006C189.86 523.136 194.141 526.273 193.459 529.963C192.009 537.821 206.951 540.126 208.577 545.207C207.59 546.796 207.696 546.313 205.233 546.976C199.108 548.425 177.854 551.499 172.248 550.212C167.972 546.615 172.668 537.082 171.908 533.147C169.297 524.102 170.638 522.909 172.717 514.813C175.707 503.167 171.889 482.243 169.375 471.242C177.014 466.743 179.665 460.847 182.135 452.617Z" fill="#E6E7E7"/>
<path d="M196.49 469.671C196.577 471.842 190.309 488.639 189.109 493.563C187.36 500.513 185.97 507.549 184.947 514.639C184.382 518.591 184.005 524.102 183.245 527.752L183.155 528.159C180.982 512.759 190.272 483.704 196.49 469.671Z" fill="#9A9B9D"/>
<path d="M152.277 302.925L152.427 295.12C160.723 298.222 163.933 299.339 172.818 300.661C172.823 303.588 172.709 307.488 172.85 310.328L172.808 310.974C172.383 318.028 173.479 325.938 172.89 332.742C172.05 342.427 170.083 352.729 168.632 362.437C166.821 374.555 167.304 389.967 161.699 400.846C156.784 387.639 157.415 363.968 155.473 348.125C155.651 347.665 156.304 346.577 156.578 346.088C156.091 342.474 153.661 336.124 153.28 332.439C152.298 322.941 152.495 312.54 152.277 302.925Z" fill="#E6E7E7"/>
<path d="M156.578 346.088C159.934 355.959 162.853 366.826 163.967 377.204C160.25 368.834 159.935 355.954 155.473 348.125C155.651 347.665 156.304 346.577 156.578 346.088Z" fill="#66686D"/>
<path d="M128.768 300.981C136.969 299.677 141.28 297.908 148.972 294.997C149.063 316.032 150.396 326.759 145.124 347.421L145.805 350.704C146.035 351.827 145.331 362.158 145.118 363.34C143.975 369.707 145.096 395.043 140.803 398.809L139.773 398.343C135.27 391.178 135.14 369.684 133.201 360.738C128.768 340.303 128.804 321.713 128.768 300.981Z" fill="#E6E7E7"/>
<path d="M145.123 347.421L145.805 350.704C143.12 357.414 139.93 373.065 137.652 381.132C137.151 376.715 143.295 353.218 145.123 347.421Z" fill="#66686D"/>
<path d="M187.256 389.834C190.627 392.592 193.431 394.501 197.012 396.929C200.4 412.259 208.267 422.288 208.257 436.897C208.253 444.777 206.095 455.714 200.21 461.476C197.278 463.338 194.398 465.439 191.015 464.735C182.813 459.736 183.009 433.177 182.658 424.075C182.28 414.267 182.259 398.192 187.256 389.834Z" fill="#E6E7E7"/>
<path d="M114.824 390.497C122.973 393.844 122.119 458.769 112.791 464.805C109.267 465.434 107.043 464.083 104.035 462.425C98.4925 458.606 98.6281 454.649 96.6586 448.817C89.9138 428.835 102.762 415.647 105.619 396.707C108.307 395.241 112.209 392.331 114.824 390.497Z" fill="#E6E7E7"/>
<path d="M210.118 105.552C211.857 105.335 213.254 105.225 215.009 105.26C224.317 105.399 233.17 109.307 239.545 116.09C248.301 125.464 248.296 134.328 247.853 146.114L238.847 138.66C222.704 126.379 210.846 129.388 192.809 120.103C197.317 113.697 202.94 108.727 210.118 105.552Z" fill="#E6E7E7"/>
<path d="M80.3169 105.582C93.8442 104.355 99.1486 111.106 107.313 120.734C94.1423 126.084 79.1455 128.681 67.6029 134.499C62.0849 137.96 57.2142 142.407 52.2312 146.632C50.2721 124.276 58.3763 111.62 80.3169 105.582Z" fill="#E6E7E7"/>
<path d="M142.192 182.613C144.801 184.65 145.684 185.168 148.636 186.687C149.233 207.559 149.056 229.624 149.134 250.559L139.236 239.501C132.972 231.614 126.755 224.257 120.88 216.051C131.98 204.329 137.822 198.572 142.192 182.613Z" fill="#E6E7E7"/>
<path d="M157.198 182.985C158.074 184.062 159.807 190.371 160.821 192.374C165.368 201.366 171.987 209.241 179.398 215.917C174.223 223.216 168.1 230.712 162.531 237.778C159.25 242.201 155.134 246.456 151.389 250.53L150.87 186.658C152.969 185.587 155.161 184.202 157.198 182.985Z" fill="#E6E7E7"/>
<path d="M174.188 339.255C179.068 344.848 182.375 367.472 181.766 375.341C181.552 378.1 176.301 386.417 176.198 389.95C176.179 390.596 175.777 392.202 175.618 392.942C178.236 386.621 180.845 380.853 182.888 374.363C188.061 379.468 190.977 380.341 197.843 378.437C196.977 384.217 196.846 388.792 196.88 394.583L188.931 388.588C186.792 388.076 187.666 388.012 185.566 388.635C181.821 392.237 181.418 401.311 180.781 406.52C178.76 403.325 178.387 401.48 174.535 400.84C170.349 402.039 166.88 408.15 164.085 411.945C163.652 409.029 162.833 405.729 162.177 402.813C168.981 394.106 168.864 379.374 170.033 368.444C171.051 358.666 172.437 348.928 174.188 339.255Z" fill="#E6E7E7"/>
<path d="M127.123 339.808C131.008 343.422 133.013 389.147 136.615 396.911C137.804 399.472 138.255 400.205 140.101 402.405C139.731 405.583 139.161 408.959 138.68 412.143C134.862 406.602 133.217 403.692 127.798 399.548C125.22 401.858 123.713 403.925 121.574 406.648C121.042 401.259 120.852 392.447 116.725 388.769C114.423 388.146 115.401 388.187 112.9 388.862C110.482 390.8 108.015 392.563 105.507 394.385C105.419 388.396 105.279 384.723 104.188 378.833C111.671 379.875 113.89 380.16 119.16 374.288C119.595 375.498 127.449 395.497 127.538 395.625C127.867 386.784 118.596 378.321 120.504 367.001C122.167 357.135 122.794 349.284 127.123 339.808Z" fill="#E6E7E7"/>
<path d="M174.522 402.138C176.436 403.715 179.423 408.185 179.607 410.647C181.042 429.924 187.049 455.883 169.232 469.182L168.163 468.652C162.945 458.816 163.247 444.323 164.579 433.544C165.44 426.583 167.494 421.001 165.795 413.854C167.203 410.461 172.03 405.06 174.522 402.138Z" fill="#E6E7E7"/>
<path d="M127.747 402.621C130.123 403.185 135.582 411.328 137.348 413.714C133.156 425.5 146.185 443.171 134.637 469.473C128.626 467.715 121.409 451.511 121.641 445.365C122.082 433.701 120.81 419.89 123.622 408.47C124.063 406.678 126.471 404.047 127.747 402.621Z" fill="#E6E7E7"/>
<path d="M191.474 121.684C202.054 127.273 208.419 128.645 219.818 131.299C215.015 138.603 208.882 142.562 201.653 147.063L194.99 151.538C187.846 150.299 184.525 149.507 177.978 146.475C180.419 138.422 186.123 128.088 191.474 121.684Z" fill="#E6E7E7"/>
<path d="M108.098 122.294C112.25 124.773 119.881 142.07 121.619 147.086C115.56 149.525 111.089 150.7 104.664 151.736C102.815 150.561 100.504 148.832 98.6689 147.54C90.6427 142.538 85.8815 139.674 80.0829 131.979C90.0314 128.562 98.1827 127.439 108.098 122.294Z" fill="#E6E7E7"/>
<path d="M150.614 60.2625C160.264 63.0522 157.602 77.873 162.628 81.1429C170.746 86.4248 183.466 88.4753 192.624 94.6093L192.776 95.4963C181.159 91.5699 172.955 89.8006 160.73 91.7003C157.111 86.451 154.56 83.0938 150.465 78.1646L150.614 60.2625Z" fill="#E6E7E7"/>
<path d="M146.443 60.9359C147.194 61.0337 147.354 61.1879 148.072 61.4958C148.907 64.3716 148.556 74.1887 148.514 77.8538C145.784 82.1643 141.848 86.7909 138.697 91.6869C127.279 89.5864 119.049 91.8551 108.399 95.0854L107.233 95.2926L107.27 94.5511C112.948 89.7953 129.692 86.5319 136.106 80.8705C143.752 74.1224 137.566 67.7328 146.443 60.9359Z" fill="#E2E2E3"/>
<path d="M149.531 80.2925C153.099 84.0536 155.894 88.3781 158.851 92.6409C155.781 95.4812 152.669 98.6422 149.67 101.587C148.382 100.859 141.884 94.0668 140.469 92.6252C143.235 88.47 146.511 84.2945 149.531 80.2925Z" fill="#E6E7E7"/>
<path d="M197.736 109.192L197.998 109.369C198.164 110.684 196.958 111.512 195.703 112.826C190.131 118.658 186.238 125.03 182.013 131.851C181.545 131.415 181.175 130.911 181.129 130.213C180.264 116.813 183.087 110.215 197.736 109.192Z" fill="#E2E2E3"/>
<path d="M100.339 109.494C117.572 108.905 118.259 119.255 118.175 132.529C117.143 131.851 114.067 126.585 112.959 124.983C108.881 119.084 105.311 114.642 100.339 109.494Z" fill="#E6E7E7"/>
<path d="M80.9678 136.025C83.5422 137.686 86.2157 141.9 88.8216 143.856C92.9237 146.934 97.9365 148.896 102.038 151.905C95.7282 153.18 89.2583 152.487 82.9467 151.725C82.5723 146.184 81.8213 141.51 80.9678 136.025Z" fill="#E2E2E3"/>
<path d="M217.983 136.782C218.183 139.557 217.043 148.209 216.679 151.463C209.428 152.662 206.614 152.714 199.239 152.033L198.843 151.585C199.547 150.398 205.42 147.214 207.175 146.021C211.805 142.873 214.155 140.768 217.983 136.782Z" fill="#E6E7E7"/>
<path d="M436.7 535.225C437.94 534.707 439.268 534.166 440.618 534.026C449.34 533.124 493.476 538.886 501.906 542.174C506.203 543.851 512.025 545.265 514.429 549.2C513.876 551.679 504.095 554.537 500.975 555.387C479.975 561.096 456.547 562.295 434.942 563.477C426.832 563.925 418.914 563.302 412.003 564.047C401.926 566.23 335.188 561.597 325.32 558.745C318.596 558.594 298.504 555.194 294.866 549.607C293.899 537.914 353.51 535.755 361.818 535.557C362.249 535.545 363.838 536.476 364.292 536.762C363.728 541.092 361.923 551.65 368.659 552.092C378.545 552.744 388.413 550.992 398.322 551.266C413.913 551.33 430.092 552.68 445.573 552.395C447.669 551.761 450.463 550.364 451.523 548.466C455.493 541.371 440.892 536.849 436.7 535.225Z" fill="#CFD0D1"/>
<path d="M325.32 558.745C318.596 558.594 298.504 555.194 294.866 549.607C293.899 537.914 353.51 535.755 361.818 535.557C362.249 535.545 363.838 536.476 364.292 536.762C363.728 541.092 361.923 551.65 368.659 552.092C378.545 552.744 388.413 550.992 398.322 551.266C413.913 551.33 430.092 552.68 445.573 552.395C428.171 560.817 364.595 555.666 359 559.21C357.76 559.99 357.12 558.413 355.798 559.571L356.305 560.264C359.169 560.514 367.611 560.229 369.072 561.09L368.49 562.115L367.559 561.149C361.451 563.337 332.219 558.116 325.32 558.745Z" fill="#CDCECE"/>
<!-- Muscle highlight overlays -->
<ellipse id="traps" cx="159" cy="130" rx="40" ry="18" fill="none" opacity="0"/>
<rect id="back" x="115" y="155" width="88" height="80" rx="12" fill="none" opacity="0"/>
<rect id="triceps_l" x="74" y="140" width="22" height="55" rx="11" fill="none" opacity="0"/>
<rect id="triceps_r" x="222" y="140" width="22" height="55" rx="11" fill="none" opacity="0"/>
<rect id="forearms_l" x="56" y="198" width="20" height="55" rx="10" fill="none" opacity="0"/>
<rect id="forearms_r" x="242" y="198" width="20" height="55" rx="10" fill="none" opacity="0"/>
<ellipse id="glutes" cx="159" cy="295" rx="46" ry="28" fill="none" opacity="0"/>
<rect id="hamstrings_l" x="112" y="318" width="38" height="75" rx="14" fill="none" opacity="0"/>
<rect id="hamstrings_r" x="168" y="318" width="38" height="75" rx="14" fill="none" opacity="0"/>
<rect id="calves_l" x="116" y="408" width="30" height="75" rx="10" fill="none" opacity="0"/>
<rect id="calves_r" x="172" y="408" width="30" height="75" rx="10" fill="none" opacity="0"/>
</g>
<defs>
<clipPath id="clip0_1_3">
<rect width="896" height="1192" fill="white" transform="translate(-347 -437)"/>
</clipPath>
</defs>
</svg>
