<?xml version="1.0" encoding="UTF-8"?>
<svg width="318" height="564" viewBox="0 0 318 564" fill="none" xmlns="http://www.w3.org/2000/svg">
<!-- Front muscle overlay — paths traced from base SVG body art coordinates -->

<!-- CHEST LEFT: traced from path 17 torso region (104-147, 111-175) -->
<path id="chest_l" d="
  M118,126 C124,118 134,114 144,114
  C147,114 147,116 147,120
  L147,170 C147,174 145,176 142,176
  C134,176 126,175 120,172
  C114,168 110,162 108,156
  C106,148 108,138 112,132
  C114,129 116,127 118,126 Z
" fill="none" opacity="0"/>

<!-- CHEST RIGHT: traced from path 43 chest region (149-214, 108-175) -->
<path id="chest_r" d="
  M150,120 C150,116 150,114 154,114
  C164,114 176,118 186,126
  C194,132 200,140 204,150
  C206,158 204,166 198,172
  C192,176 184,178 176,178
  C168,178 158,176 152,174
  C150,172 150,170 150,166
  L150,120 Z
" fill="none" opacity="0"/>

<!-- SHOULDER LEFT: traced from path 18 shoulder (54-142, 81-149) mapped to deltoid -->
<path id="shoulders_l" d="
  M104,108 C98,106 90,108 84,114
  C78,120 76,128 78,136
  C80,144 84,150 88,154
  C93,158 98,156 102,150
  C106,144 108,136 108,128
  C108,120 106,112 104,108 Z
" fill="none" opacity="0"/>

<!-- SHOULDER RIGHT: traced from path 48 (208-247, 103-149) -->
<path id="shoulders_r" d="
  M210,108 C218,106 226,110 232,118
  C238,126 240,136 238,144
  C236,150 232,156 226,158
  C220,158 216,152 214,146
  C210,138 208,128 208,120
  C208,114 209,110 210,108 Z
" fill="none" opacity="0"/>

<!-- BICEPS LEFT: traced from paths 34-37 arm region (47-96, 142-202) -->
<path id="biceps_l" d="
  M82,148 C88,142 96,142 100,148
  C102,156 100,168 96,180
  C92,192 86,198 78,200
  C70,202 64,196 62,188
  C58,178 60,164 66,154
  C70,148 76,146 82,148 Z
" fill="none" opacity="0"/>

<!-- BICEPS RIGHT: traced from paths 48-49 right arm (215-254, 142-206) -->
<path id="biceps_r" d="
  M220,148 C226,142 234,142 240,148
  C246,156 250,168 250,180
  C248,192 242,200 234,202
  C226,202 220,196 218,188
  C214,176 214,162 216,152
  C218,148 220,148 220,148 Z
" fill="none" opacity="0"/>

<!-- FOREARMS LEFT: traced from paths 38-41 (20-82, 190-280) -->
<path id="forearms_l" d="
  M64,196 C72,194 78,198 80,206
  C82,218 78,234 72,248
  C66,260 58,268 50,270
  C42,270 36,262 34,252
  C30,238 32,220 38,208
  C44,198 56,194 64,196 Z
" fill="none" opacity="0"/>

<!-- FOREARMS RIGHT: traced from paths 44-45 (236-273, 194-262) -->
<path id="forearms_r" d="
  M238,198 C246,194 254,198 258,208
  C264,222 266,240 264,254
  C262,264 256,272 248,272
  C240,270 234,262 232,250
  C228,236 228,218 232,206
  C234,200 236,198 238,198 Z
" fill="none" opacity="0"/>

<!-- ABS: traced from paths 54-62 abs segments (116-180, 177-273) -->
<path id="abs" d="
  M124,178 C132,176 148,176 150,176
  C152,176 168,176 176,178
  C180,180 182,186 182,194
  C182,206 180,218 178,230
  C176,242 172,252 168,262
  C162,270 156,274 150,274
  C144,274 138,270 132,262
  C126,252 122,242 120,230
  C118,218 116,206 116,194
  C116,186 118,180 124,178 Z
" fill="none" opacity="0"/>

<!-- QUADS LEFT: traced from paths 23,24,31,47 (100-155, 255-348) -->
<path id="quads_l" d="
  M126,258 C134,254 142,258 146,266
  C150,278 150,294 148,312
  C146,328 142,342 136,350
  C130,356 124,356 118,348
  C112,336 108,320 106,304
  C104,286 106,268 112,260
  C116,256 122,256 126,258 Z
" fill="none" opacity="0"/>

<!-- QUADS RIGHT: traced from paths 26,30,46 (165-201, 255-348) -->
<path id="quads_r" d="
  M174,258 C182,254 192,258 198,268
  C204,280 206,296 206,314
  C204,332 200,346 194,354
  C188,360 180,358 174,350
  C168,338 164,320 164,302
  C164,284 166,268 170,260
  C172,256 174,258 174,258 Z
" fill="none" opacity="0"/>

<!-- CALVES LEFT: traced from paths 5,6,16 (107-144, 390-504) adjusted to muscle zone -->
<path id="calves_l" d="
  M122,394 C130,390 138,394 140,404
  C142,416 140,432 136,448
  C132,462 128,474 122,478
  C116,480 112,474 110,464
  C106,450 106,432 108,416
  C110,402 116,394 122,394 Z
" fill="none" opacity="0"/>

<!-- CALVES RIGHT: traced from paths 10,14 (166-211, 390-537) adjusted to muscle zone -->
<path id="calves_r" d="
  M186,394 C194,390 200,394 202,404
  C204,416 204,432 200,448
  C196,462 192,474 186,478
  C180,480 176,474 174,464
  C170,450 170,432 172,416
  C176,402 180,394 186,394 Z
" fill="none" opacity="0"/>

</svg>
