<svg width="318" height="564" viewBox="0 0 318 564" fill="none" xmlns="http://www.w3.org/2000/svg">
<g clip-path="url(#clip0_1_3)">
<path d="M-34 -440H862V752H-34V-440Z" fill="#E6E7E7"/>
<path d="M114.351 44.0265C113.903 33.5383 112.077 21.1282 119.743 12.96C135.869 -4.22159 178.924 0.562727 177.73 29.6928C177.566 33.6844 177.246 39.7858 177.735 43.5044C179.863 45.0282 182.321 46.3005 182.482 49.0744C182.952 57.2345 178.355 64.6007 171.735 68.6068L170.354 80.6228C186.244 85.7575 194.396 88.5187 206.702 100.566C231.656 100.588 247.874 113.595 247.752 139.389C247.739 141.349 247.713 143.306 247.672 145.267C268.537 163.433 255.917 176.313 267.348 198.331C271.293 205.927 275.36 209.983 277.409 219.267C280.086 230.122 278.945 240.796 279.135 251.808C279.414 267.948 281.558 284.751 280.601 300.844C280.168 308.131 271.591 314.103 265.032 315.523C249.061 311.664 243.503 304.715 247.016 287.37C248.183 281.608 253.372 276.201 257.24 271.906C250.493 246.925 229.377 231.361 233.038 204.588C223.308 200.147 218.02 194.216 214.195 184.263C207.99 193.366 207.627 191.871 200.679 198.127C196.391 225.989 207.419 273.535 211.756 302.328C213.578 313.044 216.511 323.456 216.697 334.381C217.049 355.06 200.275 370.036 202.109 390.919C203.034 401.448 203.352 403.247 208.506 412.891C224.888 443.558 197.417 481.577 197.403 514.025C197.401 520.125 200.721 528.098 204.253 532.202C211.987 528.669 286.656 537.469 288.481 545.775C278.232 565.948 35.3611 565.849 23.8025 546.188C24.24 544.36 25.1383 543.732 26.7271 542.702C35.5067 537.015 98.3978 529.35 108.913 531.893C109.121 531.94 109.327 531.998 109.535 532.05C112.405 528.762 115.599 518.995 115.215 514.531C113.893 499.16 107.934 483.043 103.735 468.149C101.358 459.716 98.3478 452.708 96.3957 444.175C92.7098 428.07 97.9047 418.124 103.427 403.794C104.446 401.14 104.365 393.364 104.475 389.843C105.086 370.31 87.9311 354.816 87.1737 335.335C86.6054 322.892 89.3528 311.885 90.6634 299.762C93.6372 272.261 98.7256 244.341 97.6584 216.648C97.4145 210.315 97.7143 204.047 96.2053 197.79C90.8642 195.054 85.7415 188.815 82.4649 183.885C79.9667 191.783 76.4164 198.628 68.6744 202.679C67.3737 203.342 66.0551 203.971 64.7189 204.565C66.7019 218.429 64.7405 225.337 58.0703 237.903C52.4096 248.566 46.1597 259.893 43.2277 271.655C50.401 280.741 56.8011 287.3 55.1796 299.738C54.6731 303.621 53.404 308.579 49.9393 310.64C40.3773 316.338 31.1076 318.881 24.346 308.236C22.3302 305.041 21.0151 301.455 20.4872 297.713C19.7138 292.067 20.7964 286.317 20.3193 281.055C19.4559 271.539 21.2646 259.642 20.588 250.609C19.0713 230.36 17.6044 214.482 31.5058 197.097C31.6851 193.588 32.2563 191.388 33.1144 188.047C37.5199 170.912 30.2401 161.005 45.588 147.258C46.2162 146.699 46.8577 146.152 47.5127 145.622C46.9788 132.926 46.2499 122.801 55.6763 112.703C64.1268 103.65 73.5485 100.81 85.4894 100.425L87.1306 100.379C99.5162 88.9878 105.883 85.5969 122.195 80.7707C121.719 76.2431 121.285 72.7969 120.444 68.271C118.45 67.2973 116.598 66.3392 115.28 64.4866C111.045 58.5353 105.074 48.2148 114.351 44.0265Z" fill="#595A5E"/>
<path d="M85.7927 158.84C87.8624 161.692 89.5875 163.956 91.8516 166.645C92.6475 168.671 92.6312 168.939 92.2446 171.086L92.6783 171.697C97.3988 189.595 101.128 205.711 100.288 224.162C100.209 225.89 100.468 233.684 100.997 235.028L100.641 237.805C98.275 256.528 97.0268 278.558 93.7507 296.857L93.7374 299.936C89.7301 326.832 85.763 337.902 99.4213 362.877C103.193 369.774 106.271 377.911 107.21 385.786C106.291 388.911 106.716 395.384 107.004 398.777C107.358 396.024 107.363 390.401 107.453 387.433C115.309 386.595 117.033 383.44 120.119 376.776C125.599 388.457 130.406 393.87 143.915 393.486L144.217 391.461C145.367 387.357 144.802 375.938 144.399 371.73C145.221 370.397 145.213 370.304 145.668 368.878C147.227 354.362 147.584 341.255 149.585 326.227L149.462 324.504C150.644 317.712 150.529 310.809 151.66 305.006C152.319 311.129 152.924 318.265 154.062 324.225L154.561 326.163C154.7 330.464 155.408 335.417 156.112 339.73C157.663 349.217 158.348 359.018 159.832 368.471L160.102 370.054C160.665 368.581 160.927 368.086 161.711 366.713C161.442 374.692 161.107 383.755 162.055 391.688L162.388 394.039C163.562 393.579 172.847 392.887 176.001 390.919C180.862 387.875 183.525 381.683 185.532 376.817C189.174 384.459 191.019 385.926 199.358 387.136L199.398 384.209C199.761 370.222 209.472 357.633 212.639 344.153C215.48 332.059 212.769 321.215 210.32 309.447C209.684 306.391 209.137 301.45 207.624 298.976L207.508 296.334C207.719 293.004 205.264 279.99 204.563 275.863C202.318 263.193 200.239 250.499 198.324 237.775L196.451 236.472C199.667 231.676 196.017 205.752 199.034 193.18L200.515 193.494C201.176 195.177 200.864 196.259 200.679 198.127C196.391 225.989 207.419 273.535 211.756 302.329C213.578 313.044 216.511 323.456 216.697 334.381C217.049 355.061 200.275 370.036 202.109 390.919C203.034 401.448 203.352 403.247 208.506 412.891C224.888 443.558 197.417 481.577 197.403 514.025C197.401 520.125 200.721 528.098 204.253 532.202C211.987 528.669 286.656 537.469 288.481 545.775C278.232 565.948 35.3611 565.849 23.8025 546.188C24.24 544.36 25.1383 543.732 26.7272 542.702C35.5067 537.015 98.3978 529.35 108.913 531.893C109.121 531.94 109.327 531.998 109.535 532.05C112.405 528.762 115.599 518.995 115.215 514.531C113.893 499.16 107.934 483.043 103.735 468.149C101.358 459.716 98.3478 452.708 96.3957 444.175C92.7098 428.071 97.9047 418.124 103.427 403.794C104.446 401.14 104.365 393.364 104.475 389.843C105.086 370.31 87.9311 354.816 87.1737 335.335C86.6055 322.892 89.3528 311.885 90.6634 299.762C93.6372 272.261 98.7256 244.341 97.6585 216.648C97.4145 210.315 97.7143 204.047 96.2053 197.79C96.1971 195.805 96.3485 194.926 95.6289 193.128C93.5703 186.126 90.7705 175.684 90.4648 168.514C88.5087 166.139 86.404 163.142 84.5456 160.633L85.7927 158.84Z" fill="#515357"/>
<path d="M151.631 332.78C156.792 351.306 156.47 373.656 159.506 392.636C160.93 401.536 165.104 409.416 166.241 418.281C166.692 428.519 163.471 437.657 165.079 449.35C166.023 458.744 169.853 467.462 172.349 476.507C173.889 482.089 173.925 488.869 174.755 494.317C176.419 505.225 174.077 511.388 171.784 521.195C170.882 525.054 176.247 529.914 173.855 537.137C172.041 539.017 172.581 538.575 172.217 541.683C171.174 544.005 171.214 544.96 171.182 547.439C170.193 549.203 169.557 549.407 167.794 550.565L167.536 551.193L170.003 551.781C168.14 553.946 147.09 553.12 143.409 552.567C142.619 551.711 141.748 550.85 141.119 549.878C140.053 550.722 139.949 551.205 138.622 551.479C141.773 545.216 140.149 541.468 138.65 534.809C138.077 529.006 140.898 526.835 140.944 521.248C140.972 517.82 138.23 512.96 137.758 509.881C136.535 501.884 137.024 490.261 137.893 482.211C139.096 471.059 143.942 462.719 144.903 450.857C145.991 437.424 142.461 429.916 142.114 417.705C141.981 413.042 146.68 400.29 147.233 394.656C148.053 386.298 148.216 378.138 148.651 369.774C149.331 357.424 150.325 345.084 151.631 332.78Z" fill="#E6E7E7"/>
<path d="M138.65 534.809L139.069 535.118C140.718 536.352 141.228 536.817 142.613 538.325C142.713 537.457 142.722 537.923 142.528 536.939C147.44 538.686 153.411 538.04 158.581 537.766C155.295 537.667 150.061 537.667 147 537.056C153.48 536.567 167.053 535.752 172.087 540.356C172.072 541.095 171.927 541.235 172.217 541.683C171.174 544.005 171.214 544.96 171.182 547.439C170.193 549.203 169.557 549.407 167.794 550.565L167.536 551.193L170.003 551.781C168.14 553.946 147.09 553.12 143.409 552.567C142.619 551.711 141.748 550.85 141.119 549.878C140.053 550.722 139.949 551.205 138.622 551.479C141.773 545.216 140.149 541.468 138.65 534.809Z" fill="#9A9B9D"/>
<path d="M107.453 387.433C115.309 386.595 117.033 383.44 120.119 376.776C125.599 388.457 130.406 393.87 143.915 393.486C144.428 398.742 140.453 409.789 139.143 415.598C130.413 424.217 129.678 434.997 129.599 446.876C129.504 453.814 130.211 460.74 131.707 467.515C133.846 477.392 135.579 483.672 134.413 494.055C133.292 504.037 135.498 511.976 138.598 521.353C136.33 527.511 135.154 530.88 136.407 537.65C136.874 540.17 138.674 547.108 134.921 548.114C128.586 549.104 104.145 547.259 99.6263 544.098C100.177 541.636 104.016 539.343 106.189 537.76C121.962 526.277 118.996 513.035 114.786 496.843L108.494 473.533C108.333 472.346 108.574 472.06 108.918 470.844L107.863 468.894C104.804 463.353 103.284 457.853 101.347 451.928C95.8548 435.142 97.326 423.822 105.435 408.462C105.913 407.269 106.05 406.07 106.548 404.667C106.994 402.327 106.975 401.105 107.004 398.777C107.358 396.024 107.362 390.401 107.453 387.433Z" fill="#E6E7E7"/>
<path d="M105.435 408.462C105.913 407.269 106.05 406.07 106.548 404.667C107.664 409.137 111.519 414.265 113.189 418.973C119.725 437.412 123.857 456.835 122.8 476.478C122.695 478.451 122.296 483.666 121.057 485.121C116.285 484.848 112.674 475.256 108.494 473.533C108.333 472.346 108.574 472.06 108.918 470.844L107.863 468.894C104.804 463.353 103.284 457.853 101.347 451.928C95.8548 435.142 97.326 423.822 105.435 408.462Z" fill="#E6E7E7"/>
<path d="M105.435 408.462C105.913 407.269 106.05 406.07 106.548 404.667C107.664 409.137 111.519 414.265 113.189 418.973C119.725 437.412 123.857 456.835 122.8 476.478C122.695 478.451 122.296 483.666 121.057 485.121C116.285 484.848 112.674 475.256 108.494 473.533C108.333 472.346 108.574 472.06 108.918 470.844C110.52 472.532 112.148 474.197 113.802 475.832C106.131 457.166 102.28 444.251 104.616 423.688C105.525 442.848 106.655 467.73 120.04 482.974C122.273 463.307 117.345 423.699 105.435 408.462Z" fill="#66686D"/>
<path d="M110.739 396.862C112.872 398.637 115.569 402.234 118.282 403.311C120.928 404.359 126.84 402.077 129.679 401.85C122.876 407.117 113.715 405.33 110.739 396.862Z" fill="#66686D"/>
<path d="M204.253 532.202C211.987 528.669 286.656 537.469 288.481 545.775C278.232 565.948 35.3611 565.849 23.8025 546.188C24.24 544.36 25.1383 543.732 26.7272 542.702C35.5067 537.015 98.3978 529.35 108.913 531.893C109.121 531.94 109.327 531.998 109.535 532.05C105.242 534.384 93.1872 540.775 97.2899 545.635C102.36 551.636 131.926 551.775 138.622 551.479C139.949 551.205 140.053 550.722 141.119 549.878C141.748 550.85 142.619 551.711 143.409 552.567C147.09 553.12 168.14 553.946 170.003 551.781L167.536 551.193L167.794 550.565C169.557 549.407 170.193 549.203 171.182 547.439C171.214 544.96 171.174 544.005 172.217 541.683C172.581 538.575 172.041 539.017 173.855 537.137C172.517 548.813 171.964 553.37 186.073 551.496C191.496 550.774 218.598 551.438 216.974 542.131C216.295 538.243 207.915 534.367 204.253 532.202Z" fill="#CFD0D1"/>
<path d="M185.532 376.817C189.174 384.459 191.019 385.926 199.358 387.136C199.41 393.335 200.044 399.516 201.252 405.598C190.62 428.542 184.197 461.485 189.866 486.291C194.223 482.781 199.077 476.816 202.957 472.491C200.059 482.327 198.063 492.49 195.775 502.221C192.937 514.293 194.4 525.229 203.127 534.373C205.291 536.637 214.378 541.508 213.925 543.842C208.702 547.119 184.354 549.052 177.879 548.149C176.844 547.358 176.628 547.399 176.477 545.81C176.054 541.334 177.789 534.734 177.455 530.456C177.37 529.373 174.813 522.843 174.294 521.19C176.549 513.862 177.104 513.059 177.773 505.242C178.574 495.871 174.834 483.427 177.54 475.256L175.591 475.436C170.606 470.361 166.282 442.109 167.815 434.822C168.695 430.643 169.103 425.23 169.33 420.912L169.197 415.83C166.824 410.289 164.01 399.906 162.388 394.039C163.562 393.579 172.847 392.887 176.001 390.919C180.862 387.875 183.525 381.683 185.532 376.817Z" fill="#E6E7E7"/>
<path d="M169.33 420.912L169.838 419.515C173.374 420.743 176.73 433.187 177.135 436.708C178.305 446.87 179.208 465.943 175.591 475.436C170.606 470.361 166.282 442.109 167.815 434.822C168.695 430.643 169.103 425.23 169.33 420.912Z" fill="#E6E7E7"/>
<path d="M169.197 415.83C182.541 428.798 181.751 458.261 177.54 475.256L175.591 475.436C179.208 465.943 178.305 446.87 177.135 436.708C176.73 433.187 173.374 420.743 169.838 419.515L169.33 420.912L169.197 415.83Z" fill="#515357"/>
<path d="M195.402 396.885C197.03 403.061 184.609 406.419 178.356 402.915L178.534 402.502C187.49 404.015 189.258 405.319 195.402 396.885Z" fill="#66686D"/>
<path d="M202.559 408.055C207.44 415.708 211.476 424.27 211.205 433.524C210.844 445.857 207.172 464.89 198.494 473.94L197.122 475.553C195.029 478.364 193.331 480.215 190.936 482.799C187.037 460.99 192.597 427.803 202.559 408.055Z" fill="#E6E7E7"/>
<path d="M197.122 475.553C198.103 468.085 202.249 457.882 203.561 449.21C205.578 435.864 203.818 427.628 203.898 414.626C205.36 426.988 206.689 435.759 205.062 448.477C204.409 453.575 197.991 471.711 198.494 473.94L197.122 475.553Z" fill="#9A9B9D"/>
<path d="M138.579 419.456C144.178 443.803 143.528 451.48 135.807 475.168C134.184 473.708 132.694 464.017 132.484 461.706C131.308 448.785 130.072 429.974 138.579 419.456Z" fill="#E6E7E7"/>
<path d="M104.283 111.319C109.132 106.516 135.005 108.135 142.335 108.895C143.098 109.184 144.884 109.661 144.939 110.191C146.715 127.659 146.641 157.874 146.945 174.741C126.629 175.347 108.128 181.959 92.2941 167.07L91.8516 166.645C89.5875 163.956 87.8624 161.692 85.7927 158.84C82.5988 153.084 81.69 147.497 81.067 141.051C93.4358 130.428 96.6402 125.403 104.283 111.319Z" fill="#E6E7E7"/>
<path d="M124.854 80.787L125.946 80.5972C129.284 82.9789 133.013 85.8227 136.617 87.6759C138.221 93.8967 139.818 100.639 141.887 106.673L142.335 108.895C135.005 108.135 109.132 106.516 104.283 111.319L102.884 109.612C96.3287 121.221 88.667 134.678 76.254 140.624C71.8945 142.712 59.8064 149.394 55.6937 149.493L54.1195 148.899C51.7767 148.789 52.6611 149.132 50.7922 147.741C47.352 140.805 50.8266 122.827 56.2916 116.725C64.4942 107.57 71.2343 104.622 83.1478 103.214C84.9532 102.281 86.7347 103.732 90.1638 101.728C97.4314 94.7144 112.586 84.9503 122.806 83.8991L123.493 84.863C124.019 83.4556 124.412 82.2235 124.854 80.787Z" fill="#E6E7E7"/>
<path d="M90.1638 101.728C97.4314 94.7144 112.586 84.9503 122.806 83.8991L123.493 84.863C124.106 91.4417 125.337 99.7367 125.664 105.991C117.898 106.153 112.705 106.214 105.019 107.895C101.16 106.526 93.8037 103.667 90.1638 101.728Z" fill="#E6E7E7"/>
<path d="M124.854 80.787L125.946 80.5972C129.285 82.9789 133.013 85.8227 136.617 87.6759C138.221 93.8967 139.818 100.639 141.887 106.673C136.315 106.06 133.209 106.019 127.617 106.079C127.171 97.6036 126.248 89.1595 124.854 80.787Z" fill="#E6E7E7"/>
<path d="M123.493 84.863C124.019 83.4557 124.412 82.2235 124.854 80.787C126.248 89.1596 127.171 97.6037 127.617 106.079C133.209 106.019 136.315 106.06 141.887 106.673L142.335 108.895C135.005 108.136 109.132 106.516 104.283 111.319L102.884 109.612C96.8311 106.778 91.7387 104.149 84.7966 105.531C74.526 107.576 67.6276 114.384 62.0013 122.657C61.1076 117.674 73.5188 108.779 77.6192 106.912C79.8927 105.877 82.3048 105.2 84.6464 103.948L83.1478 103.214C84.9532 102.281 86.7347 103.732 90.1638 101.728C93.8037 103.667 101.16 106.526 105.019 107.895C112.705 106.214 117.898 106.153 125.664 105.991C125.337 99.7368 124.106 91.4417 123.493 84.863Z" fill="#66686D"/>
<path d="M54.1195 148.899C54.6504 142.532 55.1814 136.529 57.714 130.538C56.8145 136.377 55.4149 143.69 55.6937 149.493L54.1195 148.899Z" fill="#9A9B9D"/>
<path d="M125.795 266.609C142.618 276.643 158.334 277.901 174.951 266.51C175.07 283.063 170.322 315.267 154.737 323.846L154.062 324.224C152.924 318.264 152.319 311.129 151.66 305.006C150.529 310.809 150.644 317.712 149.462 324.504C131.939 314.435 126.719 285.362 125.795 266.609Z" fill="#E6E7E7"/>
<path d="M132.804 307.13C137.23 316.542 139.603 322.315 149.585 326.227C147.584 341.255 147.227 354.362 145.668 368.878C145.213 370.304 145.221 370.397 144.399 371.73C144.802 375.938 145.367 387.357 144.217 391.461C142.383 391.467 139.36 391.437 137.591 391.047C120.478 387.241 118.363 363.226 120.471 349.147C121.139 347.209 122.277 344.863 123.198 343.065C128.838 332.012 130.743 319.301 132.804 307.13Z" fill="#E6E7E7"/>
<path d="M144.399 371.73C142.864 364.257 142.217 354.933 140.682 347.011C139.432 340.562 137.131 331.739 136.326 325.697C139.998 334.812 141.672 346.283 143.517 355.928C144.185 359.414 144.344 365.904 145.668 368.878C145.213 370.304 145.221 370.397 144.399 371.73Z" fill="#9A9B9D"/>
<path d="M169.623 307.602C171.845 318.055 173.971 327.612 177.83 337.629C179.69 342.524 183.365 346.802 184.718 351.871C185.517 354.863 184.471 358.564 184.512 361.585C184.66 372.911 182.683 388.44 168.918 391.094C166.654 391.507 164.356 391.705 162.055 391.688C161.107 383.755 161.442 374.692 161.711 366.713C160.927 368.086 160.665 368.581 160.102 370.054L159.832 368.471C158.348 359.018 157.662 349.217 156.112 339.73C155.408 335.417 154.7 330.464 154.561 326.163C163.033 322.443 165.922 315.587 169.623 307.602Z" fill="#E2E2E3"/>
<path d="M159.832 368.471C161.745 363.494 161.245 357.039 162.446 352.11C163.845 346.371 164.764 334.02 166.997 329.364C166.896 328.927 162.121 365.619 161.711 366.713C160.927 368.086 160.665 368.581 160.102 370.054L159.832 368.471Z" fill="#9A9B9D"/>
<path d="M92.6783 171.697C94.6246 171.307 103.419 177.436 107.046 177.75C108.235 177.849 111.96 178.804 113.566 179.025C114.937 198.04 118.501 215.158 121.839 233.736C125.033 251.511 122.059 254.119 133.756 269.304C117.602 259.73 111.527 249.201 100.997 235.028C100.468 233.684 100.209 225.89 100.288 224.162C101.128 205.711 97.3988 189.595 92.6783 171.697Z" fill="#E6E7E7"/>
<path d="M182.05 178.909C191.572 177.704 195.506 175.609 203.166 170.271C202.433 178.053 200.441 185.433 199.034 193.18C196.017 205.752 199.667 231.676 196.451 236.472C185.78 252.227 183.083 258.269 165.731 269.519C176.059 256.563 175.662 252.809 176.246 236.338C176.403 231.926 178.521 222.648 179.215 217.672C181.092 204.832 182.04 191.882 182.05 178.909Z" fill="#E6E7E7"/>
<path d="M200.206 296.043L207.624 298.976C209.137 301.45 209.684 306.391 210.32 309.447C212.769 321.215 215.48 332.059 212.639 344.153C209.472 357.633 199.761 370.222 199.398 384.209C198.613 384.994 198.931 384.715 197.739 385.076C194.048 384.482 192.864 383.08 190.225 380.839C184.829 376.334 185.735 355.381 188.416 349.863C197.932 330.26 199.198 317.514 200.206 296.043Z" fill="#E6E7E7"/>
<path d="M93.7373 299.936C96.0329 298.336 97.9455 297.061 100.792 297.428C102.535 299.325 104.228 326.867 108.801 334.585C116.374 347.372 123.269 368.925 114.628 382.73C111.49 384.575 110.848 385.024 107.21 385.786C106.271 377.911 103.193 369.774 99.4213 362.877C85.763 337.902 89.7301 326.832 93.7373 299.936Z" fill="#E6E7E7"/>
<path d="M100.641 237.805C104.341 243.357 107.543 247.967 111.797 253.141C102.321 263.693 101.595 281.189 101.577 294.576C100.172 294.972 94.8342 296.659 93.7507 296.857C97.0268 278.558 98.275 256.528 100.641 237.805Z" fill="#E6E7E7"/>
<path d="M188.258 252.606L198.324 237.775C200.238 250.499 202.318 263.193 204.563 275.863C205.264 279.99 207.719 293.004 207.508 296.334C204.979 295.321 202.736 295.006 200.07 294.494C200.048 278.331 197.476 266.202 188.258 252.606Z" fill="#E6E7E7"/>
<path d="M84.5456 160.633C86.404 163.141 88.5086 166.139 90.4648 168.514C90.7705 175.684 93.5703 186.126 95.6289 193.128C94.9541 193.46 95.2237 193.302 94.2293 193.145C88.3532 188.32 83.1245 180.987 82.9894 173.065C82.9405 170.172 83.2107 163.008 84.5456 160.633Z" fill="#E2E2E3"/>
<path d="M59.2445 151.844C63.2891 148.963 73.8612 144.29 78.8593 141.882C80.3072 150.506 82.3909 154.527 80.7188 162.938C80.6734 165.702 80.7381 171.08 80.4225 173.641C79.5649 186.801 75.9891 197.353 62.5654 202.231C57.1236 200.88 53.0698 199.833 50.5838 194.205C49.2995 192.674 50.0522 193.116 48.4442 192.488L47.0801 193.308C51.0169 199.815 52.668 202.184 60.2849 204.099C60.7146 204.204 61.146 204.309 61.578 204.402C65.0991 223.102 56.7487 233.09 48.7446 249.166C44.2891 258.112 41.572 264.933 39.4976 274.717C39.0097 276.131 39.0924 276.277 37.8838 277.196C33.1744 275.206 30.062 261.202 24.0419 257.017C23.5986 255.469 23.6218 251.668 23.47 249.847C22.8358 242.222 20.6645 224.063 24.7942 217.515L25.5016 216.694C25.6 208.889 31.4965 202.056 36.0394 196.213C35.2214 192.674 35.3634 196.015 34.4715 193.553L37.5135 183.117L37.8605 181.062C37.7912 179.887 37.744 178.705 37.7184 177.529C37.3877 164.096 38.3408 158.805 47.9534 148.678C51.6073 151.233 52.6197 151.478 56.8278 151.309L59.2445 151.844Z" fill="#E6E7E7"/>
<path d="M59.2445 151.844C63.2891 148.963 73.8612 144.29 78.8593 141.882C80.3072 150.506 82.3909 154.527 80.7189 162.938C80.6734 165.702 80.7381 171.08 80.4225 173.641C79.5649 186.801 75.9891 197.353 62.5654 202.231C57.1236 200.88 53.0698 199.833 50.5838 194.205C50.4097 193.57 50.2659 192.93 50.1518 192.284C47.6792 178.775 51.5759 163.235 59.2445 151.844Z" fill="#E6E7E7"/>
<path d="M80.7188 162.938C80.6734 165.703 80.7381 171.08 80.4225 173.641L79.8485 169.788C78.7266 170.981 76.4251 182.96 73.272 186.417C70.4256 189.537 67.6025 195.677 63.0201 196.637C63.554 195.002 69.4673 190.707 70.9927 188.018C74.9231 181.097 78.5344 170.597 80.7188 162.938Z" fill="#9A9B9D"/>
<path d="M47.9534 148.678C51.6073 151.233 52.6197 151.478 56.8278 151.309C56.2369 154.516 53.1757 159.312 51.8594 162.664C47.7858 173.053 48.1159 182.063 48.733 192.843C45.8389 187.558 44.1843 182.628 37.8605 181.062C37.7912 179.887 37.744 178.705 37.7184 177.529C37.3877 164.096 38.3408 158.805 47.9534 148.678Z" fill="#E6E7E7"/>
<path d="M56.8279 151.309L59.2446 151.844C51.5759 163.235 47.6792 178.775 50.1518 192.284C50.2659 192.93 50.4097 193.57 50.5838 194.205C49.2995 192.674 50.0523 193.116 48.4442 192.488L47.0802 193.308L46.2354 193.832C46.424 196.771 47.9773 201.457 48.9828 204.291C55.4644 222.549 48.2294 238.73 42.7934 256.441C42.9285 251.028 47.0638 239.399 48.549 233.981C53.2596 216.793 47.3538 206.421 45.0378 191.172C41.2174 192.592 39.1728 193.46 36.0394 196.213C35.2214 192.674 35.3635 196.015 34.4715 193.553L37.5135 183.117L37.8605 181.062C44.1843 182.628 45.8389 187.558 48.733 192.843C48.1159 182.063 47.7858 173.053 51.8594 162.664C53.1757 159.312 56.2369 154.516 56.8279 151.309Z" fill="#66686D"/>
<path d="M37.5135 183.117C39.7742 184.333 40.8151 184.694 42.4808 186.673C43.3197 190.264 37.1863 192.959 34.4715 193.553L37.5135 183.117Z" fill="#E6E7E7"/>
<path d="M25.5016 216.694C27.8496 220.309 33.901 254.119 33.2559 261.447L32.5683 262.564C32.7051 249.323 27.3745 230.948 24.7943 217.515L25.5016 216.694Z" fill="#9A9B9D"/>
<path d="M138.388 6.5734C145.37 6.13862 151.196 5.87784 157.796 7.51451C181.96 13.5065 172.468 41.05 175.879 46.6969C184.953 52.6569 173.422 63.5187 169.198 68.4194C168.423 69.3181 167.799 75.3421 167.611 76.8956C163.379 80.2108 159.114 83.5598 154.162 85.6813C140.556 88.5129 135.188 84.8886 125.108 76.8909L122.779 65.9185C121.963 65.5378 119.412 64.3941 118.923 63.9326C115.193 60.4078 109.837 52.6772 113.718 47.7329C115.112 47.5711 116.83 47.5984 116.814 45.8186C116.646 26.1238 114.519 11.6109 138.388 6.5734Z" fill="#E6E7E7"/>
<path d="M160.762 107.929C170.18 107.327 179.161 108.299 188.434 109.752C190.336 112.143 193.672 117.973 195.458 120.811C201.416 130.278 205.911 134.366 214.273 141.122C213.981 143.277 213.649 145.43 213.278 147.572C211.324 158.328 206.074 165.615 197.129 171.703C180.819 180.044 167.951 174.805 149.119 175.131C148.93 166.622 146.668 114.303 148.781 110.555C151.946 107.892 156.579 108.176 160.762 107.929Z" fill="#E6E7E7"/>
<path d="M236.261 204.07C240.151 202.877 242.399 202.237 245.612 199.414C247.451 197.796 249.124 194.1 250.659 193.838C250.678 193.948 247.61 209.238 247.382 210.472C244.491 226.071 249.857 237.257 254.921 251.482C256.061 254.683 254.998 255.975 256.778 259.875C256.805 257.483 255.02 248.258 254.195 246.244C247.597 230.162 245.077 215.251 250.94 198.314C251.649 196.265 251.205 194.012 252.211 191.393L253.234 190.968C260.843 192.173 272.9 207.871 272.087 216.374L273.254 216.816C276.156 220.524 277.845 253.141 275.865 256.028C269.746 263.233 266.023 273.85 263.057 277.074L261.997 276.87C261.275 275.782 260.977 275.427 260.43 274.216C256.388 252.757 240.076 237.898 235.805 217.375C235.006 213.534 235.764 208.028 236.261 204.07Z" fill="#E6E7E7"/>
<path d="M273.254 216.816C272.15 219.872 272.049 224.179 271.261 227.316C268.217 239.44 267.034 249.253 265.872 261.546C264.597 254.724 269.746 223.085 272.087 216.374L273.254 216.816Z" fill="#66686D"/>
<path d="M186.596 254.689C189.478 255.772 194.291 268.344 195.133 271.69C201.245 296.013 198.074 325.819 186.393 347.704L185.339 347.756C180.327 338.257 169.928 313.119 171.901 303.312C174.809 288.86 177.021 281.37 176.839 265.212L186.596 254.689Z" fill="#E6E7E7"/>
<path d="M112.901 254.619C116.169 257.233 119.166 261.633 123.876 265.294C124.29 282.155 125.858 288.261 131.252 303.976C128.342 320.924 127.205 330.12 119.665 345.707C118.652 347.564 119.102 347.488 117.638 347.919C114.368 343.647 108.193 327.443 107.24 322.269C103.099 299.779 100.226 274.74 112.901 254.619Z" fill="#E6E7E7"/>
<path d="M208.747 103.713C228.214 101.559 246.741 118.905 244.938 138.51C244.715 140.936 245.603 146.193 244.34 148.009C242.312 148.591 242.679 148.853 241.282 148.148C241.225 148.038 237.891 132.647 237.647 131.285C236.781 134.666 240.74 144.825 239.125 148.882L238.195 149.266C233.843 148.16 220.023 141.258 215.173 138.944C203.994 131.786 197.573 120.746 191.21 109.586C211.355 100.141 220.359 107.009 233.474 123.661L233.446 122.672C224.955 110.152 223.346 109.818 208.747 103.713Z" fill="#E6E7E7"/>
<path d="M215.87 141.695C222.626 144.947 229.423 148.108 236.262 151.175C243.726 161.116 254.319 191.224 240.345 200.578C232.135 206.072 222.336 193.96 218.65 187.057C215.553 179.671 215.832 176.773 215.387 168.787C217.438 174.252 224.734 194.408 230.743 194.594C230.197 194.018 229.657 193.436 229.124 192.848C221.294 184.182 214.723 167.873 213.798 156.029C213.707 154.859 215.692 146.053 215.841 142.508L215.87 141.695Z" fill="#E6E7E7"/>
<path d="M24.0419 257.017C30.062 261.202 33.1744 275.206 37.8838 277.196C39.0924 276.277 39.0097 276.131 39.4976 274.717C40.2143 274.892 41.6494 275.293 42.3137 275.363C47.7497 281.108 51.3115 285.164 52.2559 293.505C52.7257 297.975 52.4288 303.615 49.2174 307.043C43.8396 312.782 33.809 314.784 27.9532 308.556C23.9794 304.331 22.9929 298.988 23.0149 293.354C23.0591 282.051 23.0864 270.736 23.1215 259.427L24.0419 257.017Z" fill="#E6E7E7"/>
<path d="M24.0419 257.017C30.062 261.202 33.1744 275.206 37.8838 277.196C39.0924 276.277 39.0097 276.131 39.4976 274.717C40.2143 274.892 41.6494 275.293 42.3137 275.363C41.9446 275.951 41.5691 276.539 41.1872 277.121C39.6927 279.379 39.4604 279.682 37.0646 280.171C31.8231 278.215 29.2964 264.817 23.1215 259.427L24.0419 257.017Z" fill="#66686D"/>
<path d="M260.43 274.216C260.977 275.427 261.275 275.782 261.997 276.87L263.057 277.074C266.023 273.85 269.746 263.233 275.865 256.028L276.018 258.862L276.433 259.049C277.607 265.998 278.633 291.241 277.807 298.312C275.808 315.436 263.287 312.956 251.093 306.676C247.55 292.015 247.893 286.55 257.985 275.386L259.144 275.456L260.43 274.216Z" fill="#E6E7E7"/>
<path d="M260.43 274.216C260.977 275.427 261.275 275.782 261.997 276.87L263.057 277.074C266.023 273.85 269.746 263.233 275.865 256.028L276.018 258.862L276.433 259.049C272.145 263.589 266.593 280.141 262.263 280.427C259.573 278.273 259.788 277.354 257.985 275.386L259.144 275.456L260.43 274.216Z" fill="#66686D"/>
<path d="M149.398 176.918C160.194 176.802 169.468 177.791 180.192 178.81C180.201 182.267 180.407 193.622 178.919 196.224C168.699 199.914 160.095 198.89 149.535 197.639L149.398 176.918Z" fill="#E6E7E7"/>
<path d="M136.287 177.244C139.299 176.918 143.828 176.976 146.965 176.93C147.127 183.676 147.217 190.427 147.236 197.179C138.572 198.843 134.832 198.803 126.084 198.413L123.743 198.028C117.572 197.027 116.541 194.973 116.289 188.629C116.167 185.556 115.877 182.285 115.602 179.206L136.287 177.244Z" fill="#E6E7E7"/>
<path d="M173.377 237.548L174.253 238.398C175.2 245.313 172.747 256.01 168.775 261.767C163.779 269.001 160.059 270.998 151.818 272.732C150.27 270.887 150.542 245.121 150.542 240.814C160.253 241.052 164.326 240.744 173.377 237.548Z" fill="#E6E7E7"/>
<path d="M124.375 237.112C134.377 240.418 137.843 240.843 148.126 240.866C148.448 251.511 148.859 262.145 149.358 272.779C129.306 269.048 125.74 255.9 124.375 237.112Z" fill="#E6E7E7"/>
<path d="M169.793 83.4655C185.395 88.5344 192 90.724 204.038 102.285L198.703 103.824C195.732 105.216 192.748 106.583 189.753 107.925C180.893 106.109 176.329 106.018 167.396 105.992C167.784 98.472 168.841 90.9394 169.793 83.4655Z" fill="#E6E7E7"/>
<path d="M177.641 199.146L178.508 199.227C179.738 201.486 177.815 212.201 177.383 215.315C168.205 219.389 160.338 218.918 150.687 218.26C149.363 216.508 149.586 202.778 149.53 199.484C159.119 201.061 168.176 201.684 177.641 199.146Z" fill="#E6E7E7"/>
<path d="M117.667 198.517C128.365 201.759 136.458 201.294 147.501 199.39C147.726 205.502 147.649 211.84 147.65 217.975C137.695 219.145 129.885 219.29 120.422 215.46C119.28 209.89 118.507 204.151 117.667 198.517Z" fill="#E6E7E7"/>
<path d="M175.594 218.324L176.196 218.365L176.733 219.127C176.703 223.812 175.252 230.273 174.188 234.912C164.941 238.765 161.208 238.846 151.306 239.073C149.353 237.7 149.996 223.37 150 220.239C159.466 220.891 166.57 221.496 175.594 218.324Z" fill="#E6E7E7"/>
<path d="M121.064 217.882C131.174 220.908 137.443 221.182 147.824 220.012C148.14 226.181 148.085 232.258 148.077 238.433C140.455 239.958 131.339 237.595 124.175 235.011C123.015 229.324 121.979 223.615 121.064 217.882Z" fill="#E6E7E7"/>
<path d="M246.805 149.155L247.638 149.085C257.731 154.51 258.332 170.178 258.274 180.044C252.865 183.949 252.348 185.008 248.871 190.893L247.771 191.905C247.153 190.904 247.634 186.795 247.765 185.387C248.961 172.547 244.099 162.624 238.42 151.495C242.059 150.977 243.541 150.93 246.805 149.155Z" fill="#E6E7E7"/>
<path d="M166.497 80.7934C168.427 83.1646 165.605 101.978 165.208 106.002C161.193 106.027 156.502 106.386 152.441 106.595L151.962 105.899L156.781 87.4827C160.339 85.2151 163.116 83.3136 166.497 80.7934Z" fill="#E6E7E7"/>
<path d="M211.396 160.487C213.982 175.533 215.673 182.028 202.804 192.819L201.848 193.07C201.329 191.463 205.542 175.859 205.273 168.362L211.396 160.487Z" fill="#E2E2E3"/>
<path d="M139.103 88.3412C145.581 88.8988 147.65 88.879 154.095 88.2312L150.156 103.724C149.208 106.265 149.147 107.286 146.474 108.052C142.407 106.351 140.162 92.8042 139.103 88.3412Z" fill="#E6E7E7"/>
<path d="M258.466 182.576C259.873 184.624 261.88 189.897 262.205 192.441L261.69 192.965L260.296 191.993C258.123 190.613 255.092 189.356 252.683 188.262C254.904 185.66 255.841 184.787 258.466 182.576Z" fill="#E2E2E3"/>
<!-- Muscle highlight overlays -->
<ellipse id="chest" cx="159" cy="155" rx="34" ry="20" fill="none" opacity="0"/>
<ellipse id="shoulders_l" cx="100" cy="130" rx="18" ry="20" fill="none" opacity="0"/>
<ellipse id="shoulders_r" cx="218" cy="130" rx="18" ry="20" fill="none" opacity="0"/>
<rect id="biceps_l" x="74" y="140" width="22" height="52" rx="11" fill="none" opacity="0"/>
<rect id="biceps_r" x="222" y="140" width="22" height="52" rx="11" fill="none" opacity="0"/>
<rect id="forearms_l" x="56" y="196" width="20" height="55" rx="10" fill="none" opacity="0"/>
<rect id="forearms_r" x="242" y="196" width="20" height="55" rx="10" fill="none" opacity="0"/>
<rect id="abs" x="134" y="178" width="50" height="70" rx="10" fill="none" opacity="0"/>
<rect id="quads_l" x="112" y="300" width="38" height="80" rx="14" fill="none" opacity="0"/>
<rect id="quads_r" x="168" y="300" width="38" height="80" rx="14" fill="none" opacity="0"/>
<rect id="calves_l" x="116" y="400" width="30" height="80" rx="10" fill="none" opacity="0"/>
<rect id="calves_r" x="172" y="400" width="30" height="80" rx="10" fill="none" opacity="0"/>
</g>
<defs>
<clipPath id="clip0_1_3">
<rect width="896" height="1192" fill="white" transform="translate(-34 -440)"/>
</clipPath>
</defs>
</svg>
