<svg width="896" height="1192" viewBox="0 0 896 1192" fill="none" xmlns="http://www.w3.org/2000/svg">
<g clip-path="url(#clip0_1_3)">
<path d="M0 0H896V1192H0V0Z" fill="#E6E7E7"/>
<path d="M471.388 508.016C464.556 503.452 459.317 495.488 460.476 486.99C461.653 484.418 465.179 484.203 465.19 482.782C465.042 469.972 462.622 456.598 475.088 448.429C490.172 438.891 520.127 440.255 526.528 460.063C530.075 471.039 523.63 479.722 532.341 486.877C535.175 489.204 530.79 498.258 529.112 500.758C526.699 504.353 525.427 505.377 521.709 507.799C521.029 512 520.681 516.032 520.283 520.259C535.295 524.898 543.354 528.715 554.679 539.639C583.815 537.799 600.227 555.067 597.223 583.987C601.956 588.288 606.066 592.886 608.413 598.922C611.079 605.784 610.182 612.687 610.91 619.834C611.411 624.799 612.855 629.822 614.141 634.635C615.119 638.285 617.53 641.276 619.562 644.413C624.58 652.166 626.641 660.384 627.369 669.511C627.893 676.053 627.369 682.659 627.41 689.218C627.468 698.705 627.817 708.256 627.945 717.761C628.05 725.17 629.476 733.173 628.318 740.483C627.835 743.539 626.024 746.746 623.992 749.051C621.128 752.293 617.21 754.423 612.831 754.621C607.714 754.848 600.861 752.025 597.304 748.428C595.074 746.17 594.364 743.3 593.916 740.268C591.442 723.517 605.705 716.323 604.681 710.445C603.877 705.829 601.741 701.394 599.709 697.204C591.028 679.295 579.658 666.467 580.56 645.03C579.614 644.495 578.677 643.948 577.75 643.383C568.676 637.871 564.959 631.731 562.508 621.732C557.507 629.863 552.491 634.915 547.917 642.173C545.277 687.524 559.172 729.175 562.841 773.7C564.352 793.611 544.503 811.584 546.728 830.361C549.615 854.713 562.678 859.503 556.164 887.085C552.363 903.179 531.717 959.059 546.18 971.509C546.348 971.445 546.513 971.375 546.682 971.323C554.596 968.762 618.892 977.714 627.934 982.76C629.156 983.441 629.855 984.034 630.519 985.251C629.389 992.817 591.302 996.606 583.634 997.322C534.102 1001.85 484.284 1002.36 434.67 998.83C423.23 997.957 370.632 994.057 365.496 986.322C368.114 976.87 443.858 968.884 451.172 972.097C451.933 971.643 453.881 970.444 454.049 969.734C455.427 963.914 454.784 962.563 457.784 957.005C456.111 928.701 442.835 902.474 439.078 874.962C436.772 858.071 454.123 840.104 449.178 821.479C447.603 815.548 446.186 811.299 442.826 805.944C429.791 784.502 432.674 766.448 436.61 742.986C439.269 727.137 441.65 709.665 444.045 693.368C446.426 677.164 446.139 658.691 445.924 642.103C441.184 634.432 436.084 630.59 431.435 621.237C431.153 622.674 430.847 624.106 430.52 625.532C428.182 635.421 422.014 640.036 413.889 645.089V645.572C413.845 654.535 412.104 663.411 408.758 671.722C404.995 681.128 391.15 700.079 390.178 711.359C393.53 719.466 399.415 722.807 401.395 731.98C404.371 745.78 398.138 751.263 385.376 754.702C377.503 756.833 367.356 747.055 367.345 739.197C367.322 722.749 367.258 705.998 367.656 689.527C367.447 666.205 365.124 655.978 380.387 636.632C380.836 627.296 384.44 619.869 383.673 609.614C382.945 599.905 389.391 590.96 396.54 584.487C396.112 578.88 395.737 573.248 396.828 567.688C400.443 549.273 419.858 536.441 438.223 540.173C449.95 529.231 457.488 525.101 472.654 520.416C472.398 515.691 472.169 512.764 471.388 508.016Z" fill="#595A5E"/>
<path d="M546.18 971.509C546.348 971.445 546.513 971.375 546.682 971.323C554.596 968.762 618.892 977.714 627.934 982.76C629.156 983.441 629.855 984.034 630.519 985.251C629.389 992.817 591.302 996.606 583.634 997.322C534.102 1001.85 484.284 1002.36 434.67 998.83C423.23 997.957 370.632 994.057 365.496 986.322C368.114 976.87 443.858 968.884 451.172 972.097C446.746 974.71 442.679 976.887 438.837 980.327C438.961 981.91 438.915 984.698 440.469 985.455C447.133 988.708 475.768 992.218 481.465 989.732C484.055 986.351 483.779 984.896 483.925 980.659C483.544 977.941 483.067 976.223 482.359 973.587C484.394 974.891 485.416 974.774 487.773 974.891C486.321 975.88 485.914 976.101 484.743 977.376L484.618 978.54C486.582 978.447 494.463 978.202 495.879 977.772C493.444 977.789 489.887 978.005 487.707 977.324L487.637 976.887C490.731 976.026 502.48 975.915 505.72 976.468L506.381 977.102L505.655 977.824L505.944 977.667C507.303 978.272 508.95 978.028 510.41 977.993L509.564 977.434L510.383 976.253L508.753 975.467L508.896 974.844C510.637 974.78 513.152 975.112 514.948 975.286C514.45 978.627 512.535 990.454 518.75 990.489C526.15 990.524 557.908 990.099 559.534 981.741C558.002 977.719 550.231 973.948 546.18 971.509Z" fill="#CFD0D1"/>
<path d="M483.925 980.659C487.958 979.692 519.927 974.984 512.267 987.224C510.531 988.33 509.121 989.156 507.042 989.476C500.253 990.053 488.573 989.732 481.465 989.732C484.055 986.351 483.779 984.896 483.925 980.659Z" fill="#9A9B9D"/>
<path d="M473.225 993.976L472.584 993.871C473.243 993.207 474.866 993.079 475.959 992.875L476.361 992.8C465.895 988.947 440.402 993.219 437.239 981.677C437.913 980.467 437.44 980.95 438.837 980.327C438.961 981.91 438.915 984.698 440.469 985.455C447.133 988.708 475.768 992.218 481.465 989.732C488.573 989.732 500.253 990.053 507.042 989.476C509.61 989.5 509.883 989.11 511.961 990.285C511.104 991.176 510.818 990.862 509.132 990.943C510.429 991.31 511.205 991.269 512.531 991.316L512.77 992.014L510.88 992.893C520.063 993.335 530.927 992.113 538.589 992.678L539.186 993.463L539.724 993.271C535.223 995.064 533.352 994.517 528.449 994.208C525.479 993.097 480.412 994.063 473.225 993.976Z" fill="#B9B9BB"/>
<path d="M482.36 973.587C481.334 967.837 484.031 965.572 483.619 959.962C483.39 956.836 480.874 951.79 480.563 948.979C479.528 937.385 480.268 923.515 483.127 912.2C485.177 904.087 488.199 899.395 489.116 890.479C490.369 878.285 486.993 867.954 486.577 856.343C486.322 849.236 492.791 836.443 493.411 828.894C495.206 811.462 494.933 793.472 497.654 776.028C501.859 792.115 501.079 810.065 502.791 826.601C503.722 835.593 509.918 847.484 510.098 855.988C510.328 866.837 506.268 878.902 508.128 890.188C508.926 899.337 512.654 905.064 514.451 912.788C518.075 928.375 519.595 944.247 514.504 959.572C513.41 962.866 517.032 968.529 514.948 975.287C513.152 975.112 510.637 974.78 508.896 974.844L508.753 975.467L510.383 976.253L509.564 977.434L510.41 977.993C508.95 978.028 507.303 978.272 505.944 977.667L505.655 977.824L506.381 977.102L505.72 976.468C502.48 975.915 490.731 976.026 487.637 976.887L487.707 977.324C489.887 978.005 493.444 977.789 495.879 977.772C494.463 978.203 486.582 978.447 484.618 978.54L484.743 977.376C485.914 976.101 486.321 975.88 487.773 974.891C485.416 974.774 484.394 974.891 482.36 973.587Z" fill="#E6E7E7"/>
<path d="M566.901 615.97C563.776 610.149 566.041 576.173 568.722 570.183C572.021 568.708 578.284 573.152 580.985 575.033C598.172 587.008 611.62 597.851 607.475 620.975C607.417 621.103 607.359 621.231 607.301 621.359L606.625 623.495C610.997 627.988 610.759 631.865 611.469 638.04C612.861 639.868 615.329 642.941 616.447 644.768L617.693 646.491C624.726 658.097 625.174 671.332 624.598 684.48C624.481 687.123 624.644 691.907 624.37 694.293C623.375 694.881 623.264 694.841 622.461 695.632C622.95 696.226 624.65 698.304 624.749 699.014C625.977 708.838 625.034 719.03 625.704 728.994C626.513 741.106 624.947 748.69 612.249 752.246C607.947 751.146 600.553 748.475 598.375 744.924C589.555 730.571 606.026 720.764 607.877 711.161C608.971 705.492 599.068 695.23 599.872 686.628L597.648 686.436C588.694 675.185 581.178 657.049 584.28 642.603C583.465 642.743 582.476 642.708 581.632 642.725C571.07 635.101 565.438 630.142 564.81 616.33L565.566 616.319L566.901 615.97Z" fill="#E6E7E7"/>
<path d="M566.901 615.97C563.776 610.149 566.041 576.173 568.722 570.183C572.021 568.708 578.284 573.152 580.985 575.033C598.172 587.008 611.62 597.851 607.475 620.975C607.417 621.103 607.359 621.231 607.301 621.359C602.468 615.178 602.171 609.951 593.281 609.142C591.395 602.81 589.922 599.585 586.726 593.881L586.178 594.97C592.577 607.059 590.248 611.331 593.858 623.652C595.092 627.866 602.841 636.882 602.259 639.874C594.888 645.333 589.858 627.721 581.632 642.725C571.07 635.101 565.438 630.142 564.81 616.33L565.566 616.319L566.901 615.97Z" fill="#E6E7E7"/>
<path d="M566.901 615.97C571.338 621.889 575.229 626.382 582.65 628.332C575.05 628.547 569.647 622.092 565.566 616.319L566.901 615.97Z" fill="#9A9B9D"/>
<path d="M586.179 594.97C584.95 593.253 582.266 589.988 582.476 588.067C584.374 588.864 585.818 592.007 586.726 593.881L586.179 594.97Z" fill="#B9B9BB"/>
<path d="M600.99 673.172L601.449 673.748C607.574 681.401 609.484 699.846 615.911 703.722C619.864 702.756 618.991 694.264 619.008 690.749L622.461 695.632C622.95 696.226 624.65 698.304 624.749 699.014C625.977 708.838 625.034 719.03 625.704 728.994C626.513 741.106 624.947 748.69 612.249 752.246C607.947 751.146 600.553 748.475 598.375 744.924C589.555 730.571 606.026 720.764 607.877 711.161C608.971 705.492 599.068 695.23 599.872 686.628C600.885 682.868 600.926 677.089 600.99 673.172Z" fill="#E6E7E7"/>
<path d="M586.178 594.97L586.726 593.881C589.922 599.585 591.395 602.81 593.281 609.142C602.171 609.951 602.468 615.178 607.301 621.359L606.625 623.495C610.997 627.988 610.759 631.865 611.469 638.04C612.861 639.868 615.329 642.941 616.447 644.768L617.693 646.491C624.726 658.097 625.174 671.332 624.598 684.48C624.481 687.123 624.644 691.907 624.37 694.293C623.375 694.881 623.264 694.841 622.461 695.632L619.008 690.749C618.991 694.264 619.864 702.756 615.911 703.722C609.484 699.846 607.574 681.401 601.449 673.748L600.99 673.172C600.925 677.089 600.885 682.868 599.872 686.628L597.648 686.436C598.608 682.589 597.927 672.066 601.589 671.018C608.5 674.405 611.958 699.799 616.132 700.067C617.635 694.829 615.771 687.775 615.661 682.373C615.405 669.481 615.114 660.186 609.862 648.185C605.682 645.607 606.788 644.739 603.743 642.306C595.202 644.373 593.322 639.466 587.692 638.867C585.928 639.6 585.363 640.939 584.28 642.603C583.465 642.743 582.476 642.708 581.632 642.725C589.858 627.721 594.888 645.333 602.259 639.874C602.841 636.882 595.092 627.866 593.858 623.652C590.248 611.331 592.577 607.059 586.178 594.97Z" fill="#66686D"/>
<path d="M617.693 646.491C624.726 658.097 625.174 671.332 624.598 684.48C624.481 687.123 624.644 691.907 624.37 694.293C622.711 692.285 617.966 688.246 617.734 687.623C615.515 681.681 616.819 672.438 616.022 666.111C615.236 659.849 613.221 653.639 611.69 647.655C613.856 647.353 615.574 646.963 617.693 646.491Z" fill="#E6E7E7"/>
<path d="M616.447 644.768C615.393 645.158 611.807 646.363 610.939 645.717C605.263 641.486 591.412 617.366 593.811 611.307C598.457 610.952 602.818 619.549 606.066 622.919L606.625 623.495C610.997 627.988 610.759 631.865 611.469 638.04C612.861 639.868 615.329 642.941 616.447 644.768Z" fill="#E2E2E3"/>
<path d="M387.121 620.568C385.82 618.676 385.908 609.486 386.309 606.989C387.931 596.396 395.681 588.742 403.687 582.637C406.043 580.84 423.583 566.213 425.116 571.078C428.354 581.358 428.48 602.699 428.819 613.368L428.4 614.124C426.296 617.89 421.335 625.078 416.898 626.33C413.99 627.15 414.089 626.353 412.641 628.384C419.536 628.815 425.885 619.974 429.485 615.085C427.649 624.985 426.342 633.244 417.315 639.379C415.892 640.351 413.864 641.887 412.274 642.382L410.072 643.092C412.928 658.766 405.227 674.382 396.659 686.96C396.322 683.113 396.041 678.352 395.29 674.644C394.049 676.658 394.212 679.324 394.073 681.809C394.267 684.725 394.564 687.641 394.961 690.539C389.517 702.087 382.202 711.749 393.331 722.033C399.884 728.092 400.283 738.109 396.931 746.135C386.282 753.748 373.149 755.389 369.947 738.475C368.856 732.719 370.838 725.374 370.539 719.501C370.873 710.963 367.716 702.977 372.529 695.329L370.653 693.764C369.174 674.848 369.014 664.942 376.169 647.079L377.396 645.333C379.641 642.702 381.378 640.438 383.436 637.65C383.63 629.857 383.22 628.128 388.551 622.657L387.121 620.568Z" fill="#66686D"/>
<path d="M387.121 620.568C385.82 618.676 385.908 609.486 386.309 606.989C387.931 596.396 395.681 588.742 403.687 582.637C406.043 580.84 423.583 566.213 425.116 571.078C428.354 581.358 428.48 602.699 428.819 613.368L428.4 614.124C426.296 617.89 421.335 625.078 416.899 626.33C413.99 627.15 414.089 626.353 412.642 628.384C419.536 628.815 425.885 619.974 429.485 615.085C427.649 624.985 426.342 633.244 417.315 639.379C415.892 640.351 413.864 641.887 412.274 642.382C406.007 627.22 396.586 647.946 391.849 639.321C392.736 635.933 398.256 629.601 400.167 624.17C402.603 617.25 402.632 613.572 403.939 606.366C405.104 599.946 408.748 593.649 411.976 588.049C407.068 593.247 402.871 602.123 401.012 608.997C391.262 611.226 393.118 614.689 387.121 620.568Z" fill="#E6E7E7"/>
<path d="M393.375 672.601C393.489 676.035 393.576 678.427 394.073 681.809C394.267 684.725 394.564 687.641 394.961 690.539C389.517 702.087 382.202 711.749 393.331 722.033C399.884 728.092 400.283 738.109 396.931 746.135C386.282 753.748 373.149 755.389 369.947 738.475C368.856 732.719 370.838 725.374 370.539 719.501C370.873 710.963 367.716 702.977 372.529 695.329L374.423 693.083L375.41 693.019C377.274 696.179 375.6 702.582 377.666 705.125L378.819 704.84C386.603 697.343 387.395 684.224 393.375 672.601Z" fill="#E6E7E7"/>
<path d="M390.456 642.504C401.143 644.454 401.821 639.088 407.366 639.35C409.073 640.426 409.179 641.16 410.072 643.092C412.928 658.766 405.227 674.382 396.659 686.96C396.323 683.113 396.041 678.352 395.29 674.644C395.11 672.234 395.51 672.881 394.161 671.35L392.945 671.455C386.475 676.559 383.954 693.484 379.025 702.069L378.601 702.803C377.847 690.568 379.509 676.617 380.186 664.249C380.659 655.612 385.152 649.075 390.456 642.504Z" fill="#E6E7E7"/>
<path d="M376.169 647.079C378.652 647.486 381.02 647.917 383.533 648.098C376.305 665.238 379.86 671.542 378.088 687.001C376.463 688.345 371.365 693.257 370.653 693.764C369.174 674.848 369.014 664.942 376.169 647.079Z" fill="#E6E7E7"/>
<path d="M388.551 622.657C391.215 619.206 395.131 613.187 399.439 612.093L400.372 612.658C401.451 618.903 389.873 638.983 386.31 644.087C385.831 644.768 385.321 645.42 384.781 646.055C382.608 645.88 379.457 645.729 377.396 645.333C379.641 642.702 381.378 640.438 383.436 637.65C383.63 629.857 383.22 628.128 388.551 622.657Z" fill="#E2E2E3"/>
<path d="M550.246 633.39C549.481 634.414 545.872 639.21 545.785 639.943C544.341 651.957 545.442 679.021 547.068 690.184C547.326 691.942 547.616 693.694 547.936 695.44C547.937 696.488 547.986 696.43 547.487 697.337C549.41 699.788 553.188 724.885 553.543 729.308L552.908 730.344L553.317 732.213C549.604 734.267 541.671 736.526 537.458 736.916C535.797 736.619 534.888 736.24 533.427 737.02C529.143 737.649 526.144 737.678 521.856 737.765C521.677 742.439 521.447 747.13 521.502 751.804C520.171 749.621 522.292 749.534 519.85 747.328C519.709 744.488 519.823 740.588 519.818 737.661C510.933 736.339 507.723 735.222 499.427 732.12L499.277 739.925C498.436 735.012 498.519 733.936 500.158 729.343C497.646 724.74 498.359 696.424 498.586 690.266C502.061 688.502 506.586 682.635 509.46 679.376C509.95 676.862 509.44 677.636 511.144 676.064L511.519 675.645C525.648 659.604 531.047 645.112 550.246 633.39Z" fill="#E6E7E7"/>
<path d="M550.246 633.39C549.481 634.414 545.872 639.21 545.785 639.943C544.341 651.957 545.442 679.021 547.068 690.184C547.326 691.942 547.616 693.694 547.936 695.44C546.508 694.841 542.069 691.267 540.656 690.109C529.491 680.942 525.669 679.248 511.699 676.961L511.144 676.064L511.519 675.645C525.648 659.604 531.047 645.112 550.246 633.39Z" fill="#E6E7E7"/>
<path d="M500.158 729.343C522.657 736.712 529.676 737.952 552.908 730.344L553.317 732.213C549.604 734.267 541.671 736.526 537.458 736.916C535.797 736.619 534.888 736.24 533.427 737.02C529.143 737.649 526.144 737.678 521.856 737.765C521.677 742.439 521.447 747.13 521.502 751.804C520.171 749.621 522.292 749.534 519.85 747.328C519.709 744.488 519.823 740.588 519.818 737.661C510.933 736.339 507.723 735.222 499.427 732.12L499.277 739.925C498.436 735.012 498.519 733.936 500.158 729.343Z" fill="#5E5E60"/>
<path d="M509.46 679.376C509.95 676.862 509.44 677.636 511.144 676.064L511.699 676.961C525.669 679.248 529.491 680.942 540.656 690.109C542.069 691.267 546.508 694.841 547.936 695.44C547.937 696.488 547.986 696.43 547.487 697.337C540.64 696.313 531.814 679.492 509.46 679.376Z" fill="#66686D"/>
<path d="M519.42 687.379C529.73 687.344 537.371 696.069 544.055 702.803C541.696 702.366 540.86 701.464 539.207 699.765C531.599 691.93 529.32 691.255 519.42 687.379Z" fill="#B9B9BB"/>
<path d="M443.942 633.96C459.911 642.434 471.868 662.934 484.306 677.269C485.641 678.416 485.255 677.729 485.663 679.3C488.437 682.513 493.035 688.828 496.344 690.632C496.632 698.49 496.587 720.351 495.839 728.593C476.374 736.782 462.197 738.132 441.668 730.368C442.254 725.607 445.355 700.032 447.18 697.873L446.94 696.284C446.451 693.717 447.814 686.279 447.9 683.014C448.244 670.005 450.409 653.895 447.968 641.201C447.606 639.321 444.992 635.537 443.942 633.96Z" fill="#E6E7E7"/>
<path d="M443.941 633.96C459.911 642.434 471.868 662.934 484.306 677.269C471.091 678.032 464.222 681.611 454.273 690.318C452.772 691.634 448.401 695.481 446.94 696.284C446.451 693.717 447.814 686.279 447.9 683.014C448.244 670.005 450.409 653.895 447.968 641.201C447.606 639.321 444.992 635.537 443.941 633.96Z" fill="#E6E7E7"/>
<path d="M484.306 677.269C485.641 678.416 485.255 677.729 485.663 679.3C471.663 679.783 466.098 683.741 455.199 692.291C453.034 693.991 449.621 696.715 447.18 697.873L446.94 696.284C448.401 695.481 452.772 691.634 454.273 690.318C464.222 681.611 471.091 678.032 484.306 677.269Z" fill="#66686D"/>
<path d="M472.516 687.315L473.413 687.449L473.594 688.025C462.884 692.373 460.957 694.433 452.802 702.663L451.699 702.756L451.532 702.18C459.339 694.2 462.033 691.075 472.516 687.315Z" fill="#B9B9BB"/>
<path d="M490.149 446.018C538.269 442.516 519.987 478.263 526.127 486.333C527.682 486.691 528.212 486.661 529.286 487.845C531.178 495.158 525.486 502.075 519.444 505.427C518.197 510.6 517.922 513.711 517.415 518.964C515.02 518.228 512.998 517.363 510.698 516.408C506.755 509.159 507.699 501.443 501.362 496.84C485.71 492.572 488.086 505.643 483.129 514.843C481.416 518.021 479.092 518.157 475.763 518.884C475.611 517.074 475.149 510.86 474.604 509.649C471.105 501.872 464.759 501.529 463.306 491.395C461.99 485.089 467.54 489.595 467.573 484.628C467.708 464.888 465.694 450.041 490.149 446.018Z" fill="#E6E7E7"/>
<path d="M441.267 732.626C447.616 734.646 451.196 735.926 457.797 736.98C459.159 737.94 459.278 737.8 460.922 737.789C463.984 737.346 469.577 737.102 472.464 738.016C474.835 742.224 473.817 752.136 474.034 757.258C474.525 768.828 474.156 773.054 469.204 783.682C466.37 789.764 467.537 805.607 462.716 811.718C459.906 815.28 454.234 814.198 450.213 813.534C448.688 810.327 447.459 808.051 446.662 804.588C445.323 804.46 445.954 804.687 444.819 803.651C439.389 794.927 432.472 774.719 438.225 765.278L436.898 762.769C436.616 760.465 440.619 736.683 441.267 732.626Z" fill="#E6E7E7"/>
<path d="M441.267 732.626C447.616 734.646 451.196 735.926 457.797 736.98C454.115 740.46 452.626 742.043 449.471 745.792C446.712 749.068 439.236 761.215 436.898 762.769C436.616 760.465 440.619 736.683 441.267 732.626Z" fill="#E6E7E7"/>
<path d="M457.797 736.98C459.159 737.94 459.278 737.8 460.922 737.789C448.7 747.91 447.347 754.784 438.225 765.278L436.898 762.769C439.236 761.215 446.712 749.068 449.471 745.792C452.626 742.043 454.115 740.46 457.797 736.98Z" fill="#66686D"/>
<path d="M444.63 770.318L445.664 771.564C443.683 780.242 444.83 795.87 446.662 804.588C445.323 804.46 445.954 804.687 444.819 803.651C443.366 788.664 442.431 785.771 444.63 770.318Z" fill="#66686D"/>
<path d="M444.63 770.318C445.226 767.42 445.74 764.056 447.039 761.46C447.39 763.846 446.14 768.863 445.664 771.564L444.63 770.318Z" fill="#B9B9BB"/>
<path d="M524.205 585.116C534.87 591.093 551.512 591.844 563.653 590.61C563.264 604.835 563.934 623 550.487 631.597C545.802 634.589 541.054 636.585 536.899 640.409C534.272 643.238 530.171 648.604 527.613 651.77C517.713 639.908 509.738 634.659 506.608 617.57C512.611 605.825 517.984 598.753 524.205 585.116Z" fill="#E6E7E7"/>
<path d="M468.159 586.105L469.367 586.303C470.962 588.672 472.198 591.262 473.497 593.8C477.661 601.954 482.297 609.8 487.14 617.57C484.212 633.221 476.706 640.281 466.401 651.601L458.283 641.823C451.803 635.275 448.42 635.793 441.74 630.549C429.454 620.911 431.326 605.26 430.11 590.494C442.299 592.939 456.769 590.907 468.159 586.105Z" fill="#E6E7E7"/>
<path d="M553.317 732.213C555.299 734.174 558.756 759.114 558.727 763.014L557.103 764.376C564.133 774.526 556.219 792.872 551.402 802.982C553.445 788.99 553.709 783.466 551.435 769.323L550.69 770.074C552.273 785.428 553.677 799.874 545.429 813.394C526.676 816.945 531.81 802.97 528.589 790.323C527.269 785.137 524.842 777.495 521.896 773.153C521.991 766.035 521.86 758.916 521.502 751.804C521.447 747.13 521.677 742.439 521.856 737.765C526.144 737.678 529.143 737.649 533.427 737.02C534.888 736.24 535.797 736.619 537.458 736.916C541.671 736.526 549.604 734.267 553.317 732.213Z" fill="#E6E7E7"/>
<path d="M553.317 732.213C555.299 734.174 558.756 759.114 558.727 763.014C556.527 760.412 553.111 754.912 551.024 751.909C546.466 745.343 543.226 742.061 537.458 736.916C541.671 736.526 549.604 734.267 553.317 732.213Z" fill="#E6E7E7"/>
<path d="M533.427 737.02C534.888 736.24 535.797 736.619 537.458 736.916C543.226 742.061 546.466 745.343 551.024 751.909C553.111 754.912 556.527 760.412 558.727 763.014L557.103 764.376C555.982 763.218 553.412 759.295 552.417 757.84C546.414 749.057 542.583 742.969 533.427 737.02Z" fill="#66686D"/>
<path d="M550.689 770.074C549.983 768.171 548.851 764.137 549.084 762.135C550.446 763.893 550.896 767.024 551.435 769.323L550.689 770.074Z" fill="#B9B9BB"/>
<path d="M473.635 529.877C476.915 529.479 480.45 529.737 483.774 529.875C487.735 532.028 492.189 536.807 495.493 540.071C495.368 567.415 495.973 594.295 495.496 621.784C488.551 616.953 486.077 611.715 481.822 604.527C476.381 594.935 469.968 583.574 466.943 572.867C465.224 566.782 468.658 554.408 463.611 549.573C459.246 545.389 451.487 545.296 445.943 545.25L440.48 541.849C450.551 533.383 460.742 531.055 473.635 529.877Z" fill="#E6E7E7"/>
<path d="M510.439 529.747C525.43 528.653 541.161 531.949 552.9 541.697L547.802 544.866C521.32 544.189 529.059 557.295 525.773 574.805C524.967 579.099 518.622 591.839 516.38 596.285C511.856 604.998 505.947 616.319 497.743 621.551L497.83 539.955C500.969 536.264 505.811 531.25 510.439 529.747Z" fill="#E6E7E7"/>
<path d="M467.162 889.611C470.588 891.771 470.646 902.16 480.918 908.65C476.721 927.222 474.839 942.658 481.27 960.881C480.83 962.517 479.742 966.632 479.644 967.93C478.678 980.635 486.753 990.763 467.052 987.27C462.063 986.386 454.029 985.798 448.401 984.791C445.739 984.052 444.67 984.256 443.124 982.434C444.152 978.103 452.039 976.451 457.152 971.061L457.619 970.56C457.319 962.307 460.812 959.898 460.327 953.996C458.927 936.931 452.456 915.867 447.68 899.477C461.017 909.674 463.977 901.945 467.162 889.611Z" fill="#E6E7E7"/>
<path d="M453.109 906.706C453.234 906.81 453.359 906.909 453.483 907.014C461.661 920.488 468.36 950.527 467.302 965.159C466.167 962.651 466.174 958.495 465.901 955.678C464.26 938.717 459.437 922.415 453.109 906.706Z" fill="#66686D"/>
<path d="M529.135 889.617C534.942 895.152 529.988 912.386 549.142 899.867C544.997 917.048 539.204 935.493 537.538 953.006C536.86 960.136 541.141 963.273 540.459 966.963C539.009 974.821 553.951 977.126 555.577 982.207C554.59 983.796 554.696 983.313 552.233 983.976C546.108 985.425 524.854 988.499 519.248 987.212C514.972 983.615 519.668 974.082 518.908 970.147C516.297 961.102 517.638 959.909 519.717 951.813C522.707 940.167 518.889 919.243 516.375 908.242C524.014 903.743 526.665 897.847 529.135 889.617Z" fill="#E6E7E7"/>
<path d="M543.49 906.671C543.577 908.842 537.309 925.639 536.109 930.563C534.36 937.513 532.97 944.549 531.947 951.639C531.382 955.591 531.005 961.102 530.245 964.752L530.155 965.159C527.982 949.759 537.272 920.704 543.49 906.671Z" fill="#9A9B9D"/>
<path d="M499.277 739.925L499.427 732.12C507.723 735.222 510.933 736.339 519.818 737.661C519.823 740.588 519.709 744.488 519.85 747.328L519.808 747.974C519.383 755.028 520.479 762.938 519.89 769.742C519.05 779.427 517.083 789.729 515.632 799.437C513.821 811.555 514.304 826.967 508.699 837.846C503.784 824.639 504.415 800.968 502.473 785.125C502.651 784.665 503.304 783.577 503.578 783.088C503.091 779.474 500.661 773.124 500.28 769.439C499.298 759.941 499.495 749.54 499.277 739.925Z" fill="#E6E7E7"/>
<path d="M503.578 783.088C506.934 792.959 509.853 803.826 510.967 814.204C507.25 805.834 506.935 792.954 502.473 785.125C502.651 784.665 503.304 783.577 503.578 783.088Z" fill="#66686D"/>
<path d="M475.768 737.981C483.969 736.677 488.28 734.908 495.972 731.997C496.063 753.032 497.396 763.759 492.124 784.421L492.805 787.704C493.035 788.827 492.331 799.158 492.118 800.34C490.975 806.707 492.096 832.043 487.803 835.809L486.773 835.343C482.27 828.178 482.14 806.684 480.201 797.738C475.768 777.303 475.804 758.713 475.768 737.981Z" fill="#E6E7E7"/>
<path d="M492.123 784.421L492.805 787.704C490.12 794.414 486.93 810.065 484.652 818.132C484.151 813.715 490.295 790.218 492.123 784.421Z" fill="#66686D"/>
<path d="M534.256 826.834C537.627 829.592 540.431 831.501 544.012 833.929C547.4 849.259 555.267 859.288 555.257 873.897C555.253 881.777 553.095 892.714 547.21 898.476C544.278 900.338 541.398 902.439 538.015 901.735C529.813 896.736 530.009 870.177 529.658 861.075C529.28 851.267 529.259 835.192 534.256 826.834Z" fill="#E6E7E7"/>
<path d="M461.824 827.497C469.973 830.844 469.119 895.769 459.791 901.805C456.267 902.434 454.043 901.083 451.035 899.425C445.492 895.606 445.628 891.649 443.659 885.817C436.914 865.835 449.762 852.647 452.619 833.707C455.307 832.241 459.209 829.331 461.824 827.497Z" fill="#E6E7E7"/>
<path d="M557.118 542.552C558.857 542.335 560.254 542.225 562.009 542.26C571.317 542.399 580.17 546.307 586.545 553.09C595.301 562.464 595.296 571.328 594.853 583.114L585.847 575.66C569.704 563.379 557.846 566.388 539.809 557.103C544.317 550.697 549.94 545.727 557.118 542.552Z" fill="#E6E7E7"/>
<path d="M427.317 542.582C440.844 541.355 446.149 548.106 454.313 557.734C441.142 563.084 426.146 565.681 414.603 571.499C409.085 574.96 404.214 579.407 399.231 583.632C397.272 561.276 405.376 548.62 427.317 542.582Z" fill="#E6E7E7"/>
<path d="M489.192 619.613C491.801 621.65 492.684 622.168 495.636 623.687C496.233 644.559 496.056 666.624 496.134 687.559L486.236 676.501C479.972 668.614 473.755 661.257 467.88 653.051C478.98 641.329 484.822 635.572 489.192 619.613Z" fill="#E6E7E7"/>
<path d="M504.198 619.985C505.074 621.062 506.807 627.371 507.821 629.374C512.368 638.366 518.987 646.241 526.398 652.917C521.223 660.216 515.1 667.712 509.531 674.778C506.25 679.201 502.134 683.456 498.389 687.53L497.87 623.658C499.969 622.587 502.161 621.202 504.198 619.985Z" fill="#E6E7E7"/>
<path d="M521.188 776.255C526.068 781.848 529.375 804.472 528.766 812.341C528.552 815.1 523.301 823.417 523.198 826.95C523.179 827.596 522.777 829.202 522.618 829.942C525.236 823.621 527.845 817.853 529.888 811.363C535.061 816.468 537.977 817.341 544.843 815.437C543.977 821.217 543.846 825.792 543.88 831.583L535.931 825.588C533.792 825.076 534.666 825.012 532.566 825.635C528.821 829.237 528.418 838.311 527.781 843.52C525.76 840.325 525.387 838.48 521.535 837.84C517.349 839.039 513.88 845.15 511.085 848.945C510.652 846.029 509.833 842.729 509.177 839.813C515.981 831.106 515.864 816.374 517.033 805.444C518.051 795.666 519.437 785.928 521.188 776.255Z" fill="#E6E7E7"/>
<path d="M474.123 776.808C478.008 780.422 480.013 826.147 483.615 833.911C484.804 836.472 485.255 837.205 487.101 839.405C486.731 842.583 486.161 845.959 485.68 849.143C481.862 843.602 480.217 840.692 474.798 836.548C472.22 838.858 470.713 840.925 468.574 843.648C468.042 838.259 467.852 829.447 463.725 825.769C461.423 825.146 462.401 825.187 459.9 825.862C457.482 827.8 455.015 829.563 452.507 831.385C452.419 825.396 452.279 821.723 451.188 815.833C458.671 816.875 460.89 817.16 466.16 811.288C466.595 812.498 474.449 832.497 474.538 832.625C474.867 823.784 465.596 815.321 467.504 804.001C469.167 794.135 469.794 786.284 474.123 776.808Z" fill="#E6E7E7"/>
<path d="M521.522 839.138C523.436 840.715 526.423 845.185 526.607 847.647C528.042 866.924 534.049 892.883 516.232 906.182L515.163 905.652C509.945 895.816 510.247 881.323 511.579 870.544C512.44 863.583 514.494 858.001 512.795 850.854C514.203 847.461 519.03 842.06 521.522 839.138Z" fill="#E6E7E7"/>
<path d="M474.747 839.621C477.123 840.185 482.582 848.328 484.348 850.714C480.156 862.5 493.185 880.171 481.637 906.473C475.626 904.715 468.409 888.511 468.641 882.365C469.082 870.701 467.81 856.89 470.622 845.47C471.063 843.678 473.471 841.047 474.747 839.621Z" fill="#E6E7E7"/>
<path d="M538.474 558.684C549.054 564.273 555.419 565.645 566.818 568.299C562.015 575.603 555.882 579.562 548.653 584.063L541.99 588.538C534.846 587.299 531.525 586.507 524.978 583.475C527.419 575.422 533.123 565.088 538.474 558.684Z" fill="#E6E7E7"/>
<path d="M455.098 559.294C459.25 561.773 466.881 579.07 468.619 584.086C462.56 586.525 458.089 587.7 451.664 588.736C449.815 587.561 447.504 585.832 445.669 584.54C437.643 579.538 432.882 576.674 427.083 568.979C437.031 565.562 445.183 564.439 455.098 559.294Z" fill="#E6E7E7"/>
<path d="M497.614 497.262C507.264 500.052 504.602 514.873 509.628 518.143C517.746 523.425 530.466 525.475 539.624 531.609L539.776 532.496C528.159 528.57 519.955 526.801 507.73 528.7C504.111 523.451 501.56 520.094 497.465 515.165L497.614 497.262Z" fill="#E6E7E7"/>
<path d="M493.443 497.936C494.194 498.034 494.354 498.188 495.072 498.496C495.907 501.372 495.556 511.189 495.514 514.854C492.784 519.164 488.848 523.791 485.697 528.687C474.279 526.586 466.049 528.855 455.399 532.085L454.233 532.293L454.27 531.551C459.948 526.795 476.692 523.532 483.106 517.87C490.752 511.122 484.566 504.733 493.443 497.936Z" fill="#E2E2E3"/>
<path d="M496.531 517.292C500.099 521.054 502.894 525.378 505.851 529.641C502.781 532.481 499.669 535.642 496.67 538.587C495.382 537.859 488.884 531.067 487.469 529.625C490.235 525.47 493.511 521.295 496.531 517.292Z" fill="#E6E7E7"/>
<path d="M544.736 546.192L544.998 546.369C545.164 547.684 543.958 548.512 542.703 549.826C537.131 555.658 533.238 562.03 529.013 568.851C528.545 568.415 528.175 567.911 528.129 567.213C527.264 553.813 530.087 547.215 544.736 546.192Z" fill="#E2E2E3"/>
<path d="M447.339 546.494C464.572 545.905 465.259 556.255 465.175 569.529C464.143 568.851 461.067 563.585 459.959 561.983C455.881 556.084 452.311 551.642 447.339 546.494Z" fill="#E6E7E7"/>
<path d="M427.968 573.025C430.542 574.686 433.216 578.9 435.822 580.856C439.924 583.934 444.936 585.896 449.038 588.905C442.728 590.18 436.258 589.487 429.947 588.725C429.572 583.184 428.821 578.51 427.968 573.025Z" fill="#E2E2E3"/>
<path d="M564.983 573.782C565.183 576.557 564.043 585.209 563.679 588.463C556.428 589.662 553.614 589.714 546.239 589.033L545.843 588.585C546.547 587.398 552.42 584.214 554.175 583.021C558.805 579.873 561.155 577.768 564.983 573.782Z" fill="#E6E7E7"/>
<path d="M148.351 484.027C147.903 473.538 146.077 461.128 153.743 452.96C169.869 435.778 212.924 440.563 211.73 469.693C211.566 473.684 211.246 479.786 211.735 483.504C213.863 485.028 216.321 486.3 216.482 489.074C216.952 497.235 212.355 504.601 205.735 508.607L204.354 520.623C220.244 525.758 228.396 528.519 240.702 540.566C265.656 540.588 281.874 553.595 281.752 579.389C281.739 581.349 281.713 583.306 281.672 585.267C302.537 603.433 289.917 616.313 301.348 638.331C305.293 645.927 309.36 649.983 311.409 659.267C314.086 670.122 312.945 680.796 313.135 691.808C313.414 707.948 315.558 724.751 314.601 740.844C314.168 748.131 305.591 754.103 299.032 755.523C283.061 751.664 277.503 744.715 281.016 727.37C282.183 721.608 287.372 716.201 291.24 711.906C284.493 686.925 263.377 671.361 267.038 644.588C257.308 640.147 252.02 634.216 248.195 624.263C241.99 633.366 241.627 631.871 234.679 638.127C230.391 665.989 241.419 713.535 245.756 742.328C247.578 753.044 250.511 763.456 250.697 774.381C251.049 795.06 234.275 810.036 236.109 830.919C237.034 841.448 237.352 843.247 242.506 852.891C258.888 883.558 231.417 921.577 231.403 954.025C231.401 960.125 234.721 968.098 238.253 972.202C245.987 968.669 320.656 977.469 322.481 985.775C312.232 1005.95 69.3611 1005.85 57.8025 986.188C58.24 984.36 59.1383 983.732 60.7271 982.702C69.5067 977.015 132.398 969.35 142.913 971.893C143.121 971.94 143.327 971.998 143.535 972.05C146.405 968.762 149.599 958.995 149.215 954.531C147.893 939.16 141.934 923.043 137.735 908.149C135.358 899.716 132.348 892.708 130.396 884.175C126.71 868.07 131.905 858.124 137.427 843.794C138.446 841.14 138.365 833.364 138.475 829.843C139.086 810.31 121.931 794.816 121.174 775.335C120.605 762.892 123.353 751.885 124.663 739.762C127.637 712.261 132.726 684.341 131.658 656.648C131.414 650.315 131.714 644.047 130.205 637.79C124.864 635.054 119.741 628.815 116.465 623.885C113.967 631.783 110.416 638.628 102.674 642.679C101.374 643.342 100.055 643.971 98.7189 644.565C100.702 658.429 98.7405 665.337 92.0703 677.903C86.4096 688.566 80.1597 699.893 77.2277 711.655C84.401 720.741 90.8011 727.3 89.1796 739.738C88.6731 743.621 87.404 748.579 83.9393 750.64C74.3773 756.338 65.1076 758.881 58.346 748.236C56.3302 745.041 55.0151 741.455 54.4872 737.713C53.7138 732.067 54.7964 726.317 54.3193 721.055C53.4559 711.539 55.2646 699.642 54.588 690.609C53.0713 670.36 51.6044 654.482 65.5058 637.097C65.6851 633.588 66.2563 631.388 67.1144 628.047C71.5199 610.912 64.2401 601.005 79.588 587.258C80.2162 586.699 80.8577 586.152 81.5127 585.622C80.9788 572.926 80.2499 562.801 89.6763 552.703C98.1268 543.65 107.549 540.81 119.489 540.425L121.131 540.379C133.516 528.988 139.883 525.597 156.195 520.771C155.719 516.243 155.285 512.797 154.444 508.271C152.45 507.297 150.598 506.339 149.28 504.487C145.045 498.535 139.074 488.215 148.351 484.027Z" fill="#595A5E"/>
<path d="M119.793 598.84C121.862 601.692 123.587 603.956 125.852 606.645C126.647 608.671 126.631 608.939 126.245 611.086L126.678 611.697C131.399 629.595 135.128 645.711 134.288 664.162C134.209 665.89 134.468 673.684 134.997 675.028L134.641 677.805C132.275 696.528 131.027 718.558 127.751 736.857L127.737 739.936C123.73 766.832 119.763 777.902 133.421 802.877C137.193 809.774 140.271 817.911 141.21 825.786C140.291 828.911 140.716 835.384 141.004 838.777C141.358 836.024 141.363 830.401 141.453 827.433C149.309 826.595 151.033 823.44 154.119 816.776C159.599 828.457 164.406 833.87 177.915 833.486L178.217 831.461C179.367 827.357 178.802 815.938 178.399 811.73C179.221 810.397 179.213 810.304 179.668 808.878C181.227 794.362 181.584 781.255 183.585 766.227L183.462 764.504C184.644 757.712 184.529 750.809 185.66 745.006C186.319 751.129 186.924 758.265 188.062 764.225L188.561 766.163C188.7 770.464 189.408 775.417 190.112 779.73C191.663 789.217 192.348 799.018 193.832 808.471L194.102 810.054C194.665 808.581 194.927 808.086 195.711 806.713C195.442 814.692 195.107 823.755 196.055 831.688L196.388 834.039C197.562 833.579 206.847 832.887 210.001 830.919C214.862 827.875 217.525 821.683 219.532 816.817C223.174 824.459 225.019 825.926 233.358 827.136L233.398 824.209C233.761 810.222 243.472 797.633 246.639 784.153C249.48 772.059 246.769 761.215 244.32 749.447C243.684 746.391 243.137 741.45 241.624 738.976L241.508 736.334C241.719 733.004 239.264 719.99 238.563 715.863C236.318 703.193 234.239 690.499 232.324 677.775L230.451 676.472C233.667 671.676 230.017 645.752 233.034 633.18L234.515 633.494C235.176 635.177 234.864 636.259 234.679 638.127C230.391 665.989 241.419 713.535 245.756 742.329C247.578 753.044 250.511 763.456 250.697 774.381C251.049 795.061 234.275 810.036 236.109 830.919C237.034 841.448 237.352 843.247 242.506 852.891C258.888 883.558 231.417 921.577 231.403 954.025C231.401 960.125 234.721 968.098 238.253 972.202C245.987 968.669 320.656 977.469 322.481 985.775C312.232 1005.95 69.3611 1005.85 57.8025 986.188C58.24 984.36 59.1383 983.732 60.7272 982.702C69.5067 977.015 132.398 969.35 142.913 971.893C143.121 971.94 143.327 971.998 143.535 972.05C146.405 968.762 149.599 958.995 149.215 954.531C147.893 939.16 141.934 923.043 137.735 908.149C135.358 899.716 132.348 892.708 130.396 884.175C126.71 868.071 131.905 858.124 137.427 843.794C138.446 841.14 138.365 833.364 138.475 829.843C139.086 810.31 121.931 794.816 121.174 775.335C120.605 762.892 123.353 751.885 124.663 739.762C127.637 712.261 132.726 684.341 131.658 656.648C131.415 650.315 131.714 644.047 130.205 637.79C130.197 635.805 130.349 634.926 129.629 633.128C127.57 626.126 124.77 615.684 124.465 608.514C122.509 606.139 120.404 603.142 118.546 600.633L119.793 598.84Z" fill="#515357"/>
<path d="M185.631 772.78C190.792 791.306 190.47 813.656 193.506 832.636C194.93 841.536 199.104 849.416 200.241 858.281C200.692 868.519 197.471 877.657 199.079 889.35C200.023 898.744 203.853 907.462 206.349 916.507C207.889 922.089 207.925 928.869 208.755 934.317C210.419 945.225 208.077 951.388 205.784 961.195C204.882 965.054 210.247 969.914 207.855 977.137C206.041 979.017 206.581 978.575 206.217 981.683C205.174 984.005 205.214 984.96 205.182 987.439C204.193 989.203 203.557 989.407 201.794 990.565L201.536 991.193L204.003 991.781C202.14 993.946 181.09 993.12 177.409 992.567C176.619 991.711 175.748 990.85 175.119 989.878C174.053 990.722 173.949 991.205 172.622 991.479C175.773 985.216 174.149 981.468 172.65 974.809C172.077 969.006 174.898 966.835 174.944 961.248C174.972 957.82 172.23 952.96 171.758 949.881C170.535 941.884 171.024 930.261 171.893 922.211C173.096 911.059 177.942 902.719 178.903 890.857C179.991 877.424 176.461 869.916 176.114 857.705C175.981 853.042 180.68 840.29 181.233 834.656C182.053 826.298 182.216 818.138 182.651 809.774C183.331 797.424 184.325 785.084 185.631 772.78Z" fill="#E6E7E7"/>
<path d="M172.65 974.809L173.069 975.118C174.718 976.352 175.228 976.817 176.613 978.325C176.713 977.457 176.722 977.923 176.528 976.939C181.44 978.686 187.411 978.04 192.581 977.766C189.295 977.667 184.061 977.667 181 977.056C187.48 976.567 201.053 975.752 206.087 980.356C206.072 981.095 205.927 981.235 206.217 981.683C205.174 984.005 205.214 984.96 205.182 987.439C204.193 989.203 203.557 989.407 201.794 990.565L201.536 991.193L204.003 991.781C202.14 993.946 181.09 993.12 177.409 992.567C176.619 991.711 175.748 990.85 175.119 989.878C174.053 990.722 173.949 991.205 172.622 991.479C175.773 985.216 174.149 981.468 172.65 974.809Z" fill="#9A9B9D"/>
<path d="M141.453 827.433C149.309 826.595 151.033 823.44 154.119 816.776C159.599 828.457 164.406 833.87 177.915 833.486C178.428 838.742 174.453 849.789 173.143 855.598C164.413 864.217 163.678 874.997 163.599 886.876C163.504 893.814 164.211 900.74 165.707 907.515C167.846 917.392 169.579 923.672 168.413 934.055C167.292 944.037 169.498 951.976 172.598 961.353C170.33 967.511 169.154 970.88 170.407 977.65C170.874 980.17 172.674 987.108 168.921 988.114C162.586 989.104 138.145 987.259 133.626 984.098C134.177 981.636 138.016 979.343 140.189 977.76C155.962 966.277 152.996 953.035 148.786 936.843L142.494 913.533C142.333 912.346 142.574 912.06 142.918 910.844L141.863 908.894C138.804 903.353 137.284 897.853 135.347 891.928C129.855 875.142 131.326 863.822 139.435 848.462C139.913 847.269 140.05 846.07 140.548 844.667C140.994 842.327 140.975 841.105 141.004 838.777C141.358 836.024 141.362 830.401 141.453 827.433Z" fill="#E6E7E7"/>
<path d="M139.435 848.462C139.913 847.269 140.05 846.07 140.548 844.667C141.664 849.137 145.519 854.265 147.189 858.973C153.725 877.412 157.857 896.835 156.8 916.478C156.695 918.451 156.296 923.666 155.057 925.121C150.285 924.848 146.674 915.256 142.494 913.533C142.333 912.346 142.574 912.06 142.918 910.844L141.863 908.894C138.804 903.353 137.284 897.853 135.347 891.928C129.855 875.142 131.326 863.822 139.435 848.462Z" fill="#E6E7E7"/>
<path d="M139.435 848.462C139.913 847.269 140.05 846.07 140.548 844.667C141.664 849.137 145.519 854.265 147.189 858.973C153.725 877.412 157.857 896.835 156.8 916.478C156.695 918.451 156.296 923.666 155.057 925.121C150.285 924.848 146.674 915.256 142.494 913.533C142.333 912.346 142.574 912.06 142.918 910.844C144.52 912.532 146.148 914.197 147.802 915.832C140.131 897.166 136.28 884.251 138.616 863.688C139.525 882.848 140.655 907.73 154.04 922.974C156.273 903.307 151.345 863.699 139.435 848.462Z" fill="#66686D"/>
<path d="M144.739 836.862C146.872 838.637 149.569 842.234 152.282 843.311C154.928 844.359 160.84 842.077 163.679 841.85C156.876 847.117 147.715 845.33 144.739 836.862Z" fill="#66686D"/>
<path d="M238.253 972.202C245.987 968.669 320.656 977.469 322.481 985.775C312.232 1005.95 69.3611 1005.85 57.8025 986.188C58.24 984.36 59.1383 983.732 60.7272 982.702C69.5067 977.015 132.398 969.35 142.913 971.893C143.121 971.94 143.327 971.998 143.535 972.05C139.242 974.384 127.187 980.775 131.29 985.635C136.36 991.636 165.926 991.775 172.622 991.479C173.949 991.205 174.053 990.722 175.119 989.878C175.748 990.85 176.619 991.711 177.409 992.567C181.09 993.12 202.14 993.946 204.003 991.781L201.536 991.193L201.794 990.565C203.557 989.407 204.193 989.203 205.182 987.439C205.214 984.96 205.174 984.005 206.217 981.683C206.581 978.575 206.041 979.017 207.855 977.137C206.517 988.813 205.964 993.37 220.073 991.496C225.496 990.774 252.598 991.438 250.974 982.131C250.295 978.243 241.915 974.367 238.253 972.202Z" fill="#CFD0D1"/>
<path d="M219.532 816.817C223.174 824.459 225.019 825.926 233.358 827.136C233.41 833.335 234.044 839.516 235.252 845.598C224.62 868.542 218.197 901.485 223.866 926.291C228.223 922.781 233.077 916.816 236.957 912.491C234.059 922.327 232.063 932.49 229.775 942.221C226.937 954.293 228.4 965.229 237.127 974.373C239.291 976.637 248.378 981.508 247.925 983.842C242.702 987.119 218.354 989.052 211.879 988.149C210.844 987.358 210.628 987.399 210.477 985.81C210.054 981.334 211.789 974.734 211.455 970.456C211.37 969.373 208.813 962.843 208.294 961.19C210.549 953.862 211.104 953.059 211.773 945.242C212.574 935.871 208.834 923.427 211.54 915.256L209.591 915.436C204.606 910.361 200.282 882.109 201.815 874.822C202.695 870.643 203.103 865.23 203.33 860.912L203.197 855.83C200.824 850.289 198.01 839.906 196.388 834.039C197.562 833.579 206.847 832.887 210.001 830.919C214.862 827.875 217.525 821.683 219.532 816.817Z" fill="#E6E7E7"/>
<path d="M203.33 860.912L203.838 859.515C207.374 860.743 210.73 873.187 211.135 876.708C212.305 886.87 213.208 905.943 209.591 915.436C204.606 910.361 200.282 882.109 201.815 874.822C202.695 870.643 203.103 865.23 203.33 860.912Z" fill="#E6E7E7"/>
<path d="M203.197 855.83C216.541 868.798 215.751 898.261 211.54 915.256L209.591 915.436C213.208 905.943 212.305 886.87 211.135 876.708C210.73 873.187 207.374 860.743 203.838 859.515L203.33 860.912L203.197 855.83Z" fill="#515357"/>
<path d="M229.402 836.885C231.03 843.061 218.609 846.419 212.356 842.915L212.534 842.502C221.49 844.015 223.258 845.319 229.402 836.885Z" fill="#66686D"/>
<path d="M236.559 848.055C241.44 855.708 245.476 864.27 245.205 873.524C244.844 885.857 241.172 904.89 232.494 913.94L231.122 915.553C229.029 918.364 227.331 920.215 224.936 922.799C221.037 900.99 226.597 867.803 236.559 848.055Z" fill="#E6E7E7"/>
<path d="M231.122 915.553C232.103 908.085 236.249 897.882 237.561 889.21C239.578 875.864 237.818 867.628 237.898 854.626C239.36 866.988 240.689 875.759 239.062 888.477C238.409 893.575 231.991 911.711 232.494 913.94L231.122 915.553Z" fill="#9A9B9D"/>
<path d="M172.579 859.456C178.178 883.803 177.528 891.48 169.807 915.168C168.184 913.708 166.694 904.017 166.484 901.706C165.308 888.785 164.072 869.974 172.579 859.456Z" fill="#E6E7E7"/>
<path d="M138.283 551.319C143.132 546.516 169.005 548.135 176.335 548.895C177.098 549.184 178.884 549.661 178.939 550.191C180.715 567.659 180.641 597.874 180.945 614.741C160.629 615.347 142.128 621.959 126.294 607.07L125.852 606.645C123.587 603.956 121.862 601.692 119.793 598.84C116.599 593.084 115.69 587.497 115.067 581.051C127.436 570.428 130.64 565.403 138.283 551.319Z" fill="#E6E7E7"/>
<path d="M158.854 520.787L159.946 520.597C163.284 522.979 167.013 525.823 170.617 527.676C172.221 533.897 173.818 540.639 175.887 546.673L176.335 548.895C169.005 548.135 143.132 546.516 138.283 551.319L136.884 549.612C130.329 561.221 122.667 574.678 110.254 580.624C105.895 582.712 93.8064 589.394 89.6937 589.493L88.1195 588.899C85.7767 588.789 86.6611 589.132 84.7922 587.741C81.352 580.805 84.8266 562.827 90.2916 556.725C98.4942 547.57 105.234 544.622 117.148 543.214C118.953 542.281 120.735 543.732 124.164 541.728C131.431 534.714 146.586 524.95 156.806 523.899L157.493 524.863C158.019 523.456 158.412 522.223 158.854 520.787Z" fill="#E6E7E7"/>
<path d="M124.164 541.728C131.431 534.714 146.586 524.95 156.806 523.899L157.493 524.863C158.106 531.442 159.337 539.737 159.664 545.991C151.898 546.153 146.705 546.214 139.019 547.895C135.16 546.526 127.804 543.667 124.164 541.728Z" fill="#E6E7E7"/>
<path d="M158.854 520.787L159.946 520.597C163.285 522.979 167.013 525.823 170.617 527.676C172.221 533.897 173.818 540.639 175.887 546.673C170.315 546.06 167.209 546.019 161.617 546.079C161.171 537.604 160.248 529.16 158.854 520.787Z" fill="#E6E7E7"/>
<path d="M157.493 524.863C158.019 523.456 158.412 522.224 158.854 520.787C160.248 529.16 161.171 537.604 161.617 546.079C167.209 546.019 170.315 546.06 175.887 546.673L176.335 548.895C169.005 548.136 143.132 546.516 138.283 551.319L136.884 549.612C130.831 546.778 125.739 544.149 118.797 545.531C108.526 547.576 101.628 554.384 96.0013 562.657C95.1076 557.674 107.519 548.779 111.619 546.912C113.893 545.877 116.305 545.2 118.646 543.948L117.148 543.214C118.953 542.281 120.735 543.732 124.164 541.728C127.804 543.667 135.16 546.526 139.019 547.895C146.705 546.214 151.898 546.153 159.664 545.991C159.337 539.737 158.106 531.442 157.493 524.863Z" fill="#66686D"/>
<path d="M88.1195 588.899C88.6504 582.532 89.1814 576.529 91.714 570.538C90.8145 576.377 89.4149 583.69 89.6937 589.493L88.1195 588.899Z" fill="#9A9B9D"/>
<path d="M159.795 706.609C176.618 716.643 192.334 717.901 208.951 706.51C209.07 723.063 204.322 755.267 188.737 763.846L188.062 764.224C186.924 758.264 186.319 751.129 185.66 745.006C184.529 750.809 184.644 757.712 183.462 764.504C165.939 754.435 160.719 725.362 159.795 706.609Z" fill="#E6E7E7"/>
<path d="M166.804 747.13C171.23 756.542 173.603 762.315 183.585 766.227C181.584 781.255 181.227 794.362 179.668 808.878C179.213 810.304 179.221 810.397 178.399 811.73C178.802 815.938 179.367 827.357 178.217 831.461C176.383 831.467 173.36 831.437 171.591 831.047C154.478 827.241 152.363 803.226 154.471 789.147C155.139 787.209 156.277 784.863 157.198 783.065C162.838 772.012 164.743 759.301 166.804 747.13Z" fill="#E6E7E7"/>
<path d="M178.399 811.73C176.864 804.257 176.217 794.933 174.682 787.011C173.432 780.562 171.131 771.739 170.326 765.697C173.998 774.812 175.672 786.283 177.517 795.928C178.185 799.414 178.344 805.904 179.668 808.878C179.213 810.304 179.221 810.397 178.399 811.73Z" fill="#9A9B9D"/>
<path d="M203.623 747.602C205.845 758.055 207.971 767.612 211.83 777.629C213.69 782.524 217.365 786.802 218.718 791.871C219.517 794.863 218.471 798.564 218.512 801.585C218.66 812.911 216.683 828.44 202.918 831.094C200.654 831.507 198.356 831.705 196.055 831.688C195.107 823.755 195.442 814.692 195.711 806.713C194.927 808.086 194.665 808.581 194.102 810.054L193.832 808.471C192.348 799.018 191.662 789.217 190.112 779.73C189.408 775.417 188.7 770.464 188.561 766.163C197.033 762.443 199.922 755.587 203.623 747.602Z" fill="#E2E2E3"/>
<path d="M193.832 808.471C195.745 803.494 195.245 797.039 196.446 792.11C197.845 786.371 198.764 774.02 200.997 769.364C200.896 768.927 196.121 805.619 195.711 806.713C194.927 808.086 194.665 808.581 194.102 810.054L193.832 808.471Z" fill="#9A9B9D"/>
<path d="M126.678 611.697C128.625 611.307 137.419 617.436 141.046 617.75C142.235 617.849 145.96 618.804 147.566 619.025C148.937 638.04 152.501 655.158 155.839 673.736C159.033 691.511 156.059 694.119 167.756 709.304C151.602 699.73 145.527 689.201 134.997 675.028C134.468 673.684 134.209 665.89 134.288 664.162C135.128 645.711 131.399 629.595 126.678 611.697Z" fill="#E6E7E7"/>
<path d="M216.05 618.909C225.572 617.704 229.506 615.609 237.166 610.271C236.433 618.053 234.441 625.433 233.034 633.18C230.017 645.752 233.667 671.676 230.451 676.472C219.78 692.227 217.083 698.269 199.731 709.519C210.059 696.563 209.662 692.809 210.246 676.338C210.403 671.926 212.521 662.648 213.215 657.672C215.092 644.832 216.04 631.882 216.05 618.909Z" fill="#E6E7E7"/>
<path d="M234.206 736.043L241.624 738.976C243.137 741.45 243.684 746.391 244.32 749.447C246.769 761.215 249.48 772.059 246.639 784.153C243.472 797.633 233.761 810.222 233.398 824.209C232.613 824.994 232.931 824.715 231.739 825.076C228.048 824.482 226.864 823.08 224.225 820.839C218.829 816.334 219.735 795.381 222.416 789.863C231.932 770.26 233.198 757.514 234.206 736.043Z" fill="#E6E7E7"/>
<path d="M127.737 739.936C130.033 738.336 131.945 737.061 134.792 737.428C136.535 739.325 138.228 766.867 142.801 774.585C150.374 787.372 157.269 808.925 148.628 822.73C145.49 824.575 144.848 825.024 141.21 825.786C140.271 817.911 137.193 809.774 133.421 802.877C119.763 777.902 123.73 766.832 127.737 739.936Z" fill="#E6E7E7"/>
<path d="M134.641 677.805C138.341 683.357 141.543 687.967 145.797 693.141C136.321 703.693 135.595 721.189 135.577 734.576C134.172 734.972 128.834 736.659 127.751 736.857C131.027 718.558 132.275 696.528 134.641 677.805Z" fill="#E6E7E7"/>
<path d="M222.258 692.606L232.324 677.775C234.239 690.499 236.318 703.193 238.563 715.863C239.264 719.99 241.719 733.004 241.508 736.334C238.979 735.321 236.736 735.006 234.07 734.494C234.048 718.331 231.476 706.202 222.258 692.606Z" fill="#E6E7E7"/>
<path d="M118.546 600.633C120.404 603.141 122.509 606.139 124.465 608.514C124.77 615.684 127.57 626.126 129.629 633.128C128.954 633.46 129.224 633.302 128.229 633.145C122.353 628.32 117.124 620.987 116.989 613.065C116.941 610.172 117.211 603.008 118.546 600.633Z" fill="#E2E2E3"/>
<path d="M93.2445 591.844C97.2891 588.963 107.861 584.29 112.859 581.882C114.307 590.506 116.391 594.527 114.719 602.938C114.673 605.702 114.738 611.08 114.423 613.641C113.565 626.801 109.989 637.353 96.5654 642.231C91.1236 640.88 87.0698 639.833 84.5838 634.205C83.2995 632.674 84.0522 633.116 82.4442 632.488L81.0801 633.308C85.0169 639.815 86.668 642.184 94.2849 644.099C94.7146 644.204 95.146 644.309 95.578 644.402C99.0991 663.102 90.7487 673.09 82.7446 689.166C78.2891 698.112 75.572 704.933 73.4976 714.717C73.0097 716.131 73.0924 716.277 71.8838 717.196C67.1744 715.206 64.062 701.202 58.0419 697.017C57.5986 695.469 57.6218 691.668 57.47 689.847C56.8358 682.222 54.6645 664.063 58.7942 657.515L59.5016 656.694C59.6 648.889 65.4965 642.056 70.0394 636.213C69.2214 632.674 69.3634 636.015 68.4715 633.553L71.5135 623.117L71.8605 621.062C71.7912 619.887 71.744 618.705 71.7184 617.529C71.3877 604.096 72.3408 598.805 81.9534 588.678C85.6073 591.233 86.6197 591.478 90.8278 591.309L93.2445 591.844Z" fill="#E6E7E7"/>
<path d="M93.2445 591.844C97.2891 588.963 107.861 584.29 112.859 581.882C114.307 590.506 116.391 594.527 114.719 602.938C114.673 605.702 114.738 611.08 114.423 613.641C113.565 626.801 109.989 637.353 96.5654 642.231C91.1236 640.88 87.0698 639.833 84.5838 634.205C84.4097 633.57 84.2659 632.93 84.1518 632.284C81.6792 618.775 85.5759 603.235 93.2445 591.844Z" fill="#E6E7E7"/>
<path d="M114.719 602.938C114.673 605.703 114.738 611.08 114.423 613.641L113.848 609.788C112.727 610.981 110.425 622.96 107.272 626.417C104.426 629.537 101.603 635.677 97.0201 636.637C97.554 635.002 103.467 630.707 104.993 628.018C108.923 621.097 112.534 610.597 114.719 602.938Z" fill="#9A9B9D"/>
<path d="M81.9534 588.678C85.6073 591.233 86.6197 591.478 90.8278 591.309C90.2369 594.516 87.1757 599.312 85.8594 602.664C81.7858 613.053 82.1159 622.063 82.733 632.843C79.8389 627.558 78.1843 622.628 71.8605 621.062C71.7912 619.887 71.744 618.705 71.7184 617.529C71.3877 604.096 72.3408 598.805 81.9534 588.678Z" fill="#E6E7E7"/>
<path d="M90.8279 591.309L93.2446 591.844C85.5759 603.235 81.6792 618.775 84.1518 632.284C84.2659 632.93 84.4097 633.57 84.5838 634.205C83.2995 632.674 84.0523 633.116 82.4442 632.488L81.0802 633.308L80.2354 633.832C80.424 636.771 81.9773 641.457 82.9828 644.291C89.4644 662.549 82.2294 678.73 76.7934 696.441C76.9285 691.028 81.0638 679.399 82.549 673.981C87.2596 656.793 81.3538 646.421 79.0378 631.172C75.2174 632.592 73.1728 633.46 70.0394 636.213C69.2214 632.674 69.3635 636.015 68.4715 633.553L71.5135 623.117L71.8605 621.062C78.1843 622.628 79.8389 627.558 82.733 632.843C82.1159 622.063 81.7858 613.053 85.8594 602.664C87.1757 599.312 90.2369 594.516 90.8279 591.309Z" fill="#66686D"/>
<path d="M71.5135 623.117C73.7742 624.333 74.8151 624.694 76.4808 626.673C77.3197 630.264 71.1863 632.959 68.4715 633.553L71.5135 623.117Z" fill="#E6E7E7"/>
<path d="M59.5016 656.694C61.8496 660.309 67.901 694.119 67.2559 701.447L66.5683 702.564C66.7051 689.323 61.3745 670.948 58.7943 657.515L59.5016 656.694Z" fill="#9A9B9D"/>
<path d="M172.388 446.573C179.37 446.139 185.196 445.878 191.796 447.515C215.96 453.507 206.468 481.05 209.879 486.697C218.953 492.657 207.422 503.519 203.198 508.419C202.423 509.318 201.799 515.342 201.611 516.896C197.379 520.211 193.114 523.56 188.162 525.681C174.556 528.513 169.188 524.889 159.108 516.891L156.779 505.918C155.963 505.538 153.412 504.394 152.923 503.933C149.193 500.408 143.837 492.677 147.718 487.733C149.112 487.571 150.83 487.598 150.814 485.819C150.646 466.124 148.519 451.611 172.388 446.573Z" fill="#E6E7E7"/>
<path d="M194.762 547.929C204.18 547.327 213.161 548.299 222.434 549.752C224.336 552.143 227.672 557.973 229.458 560.811C235.416 570.278 239.911 574.366 248.273 581.122C247.981 583.277 247.649 585.43 247.278 587.572C245.324 598.328 240.074 605.615 231.129 611.703C214.819 620.044 201.951 614.805 183.119 615.131C182.93 606.622 180.668 554.303 182.781 550.555C185.946 547.892 190.579 548.176 194.762 547.929Z" fill="#E6E7E7"/>
<path d="M270.261 644.07C274.151 642.877 276.399 642.237 279.612 639.414C281.451 637.796 283.124 634.1 284.659 633.838C284.678 633.948 281.61 649.238 281.382 650.472C278.491 666.071 283.857 677.257 288.921 691.482C290.061 694.683 288.998 695.975 290.778 699.875C290.805 697.483 289.02 688.258 288.195 686.244C281.597 670.162 279.077 655.251 284.94 638.314C285.649 636.265 285.205 634.012 286.211 631.393L287.234 630.968C294.843 632.173 306.9 647.871 306.087 656.374L307.254 656.816C310.156 660.524 311.845 693.141 309.865 696.028C303.746 703.233 300.023 713.85 297.057 717.074L295.997 716.87C295.275 715.782 294.977 715.427 294.43 714.216C290.388 692.757 274.076 677.898 269.805 657.375C269.006 653.534 269.764 648.028 270.261 644.07Z" fill="#E6E7E7"/>
<path d="M307.254 656.816C306.15 659.872 306.049 664.179 305.261 667.316C302.217 679.44 301.034 689.253 299.872 701.546C298.597 694.724 303.746 663.085 306.087 656.374L307.254 656.816Z" fill="#66686D"/>
<path d="M220.596 694.689C223.478 695.772 228.291 708.344 229.133 711.69C235.245 736.013 232.074 765.819 220.393 787.704L219.339 787.756C214.327 778.257 203.928 753.119 205.901 743.312C208.809 728.86 211.021 721.37 210.839 705.212L220.596 694.689Z" fill="#E6E7E7"/>
<path d="M146.901 694.619C150.169 697.233 153.166 701.633 157.876 705.294C158.29 722.155 159.858 728.261 165.252 743.976C162.342 760.924 161.205 770.12 153.665 785.707C152.652 787.564 153.102 787.488 151.638 787.919C148.368 783.647 142.193 767.443 141.24 762.269C137.099 739.779 134.226 714.74 146.901 694.619Z" fill="#E6E7E7"/>
<path d="M242.747 543.713C262.214 541.559 280.741 558.905 278.938 578.51C278.715 580.936 279.603 586.193 278.34 588.009C276.312 588.591 276.679 588.853 275.282 588.148C275.225 588.038 271.891 572.647 271.647 571.285C270.781 574.666 274.74 584.825 273.125 588.882L272.195 589.266C267.843 588.16 254.023 581.258 249.173 578.944C237.994 571.786 231.573 560.746 225.21 549.586C245.355 540.141 254.359 547.009 267.474 563.661L267.446 562.672C258.955 550.152 257.346 549.818 242.747 543.713Z" fill="#E6E7E7"/>
<path d="M249.87 581.695C256.626 584.947 263.423 588.108 270.262 591.175C277.726 601.116 288.319 631.224 274.345 640.578C266.135 646.072 256.336 633.96 252.65 627.057C249.553 619.671 249.832 616.773 249.387 608.787C251.438 614.252 258.734 634.408 264.743 634.594C264.197 634.018 263.657 633.436 263.124 632.848C255.294 624.182 248.723 607.873 247.798 596.029C247.707 594.859 249.692 586.053 249.841 582.508L249.87 581.695Z" fill="#E6E7E7"/>
<path d="M58.0419 697.017C64.062 701.202 67.1744 715.206 71.8838 717.196C73.0924 716.277 73.0097 716.131 73.4976 714.717C74.2143 714.892 75.6494 715.293 76.3137 715.363C81.7497 721.108 85.3115 725.164 86.2559 733.505C86.7257 737.975 86.4288 743.615 83.2174 747.043C77.8396 752.782 67.809 754.784 61.9532 748.556C57.9794 744.331 56.9929 738.988 57.0149 733.354C57.0591 722.051 57.0864 710.736 57.1215 699.427L58.0419 697.017Z" fill="#E6E7E7"/>
<path d="M58.0419 697.017C64.062 701.202 67.1744 715.206 71.8838 717.196C73.0924 716.277 73.0097 716.131 73.4976 714.717C74.2143 714.892 75.6494 715.293 76.3137 715.363C75.9446 715.951 75.5691 716.539 75.1872 717.121C73.6927 719.379 73.4604 719.682 71.0646 720.171C65.8231 718.215 63.2964 704.817 57.1215 699.427L58.0419 697.017Z" fill="#66686D"/>
<path d="M294.43 714.216C294.977 715.427 295.275 715.782 295.997 716.87L297.057 717.074C300.023 713.85 303.746 703.233 309.865 696.028L310.018 698.862L310.433 699.049C311.607 705.998 312.633 731.241 311.807 738.312C309.808 755.436 297.287 752.956 285.093 746.676C281.55 732.015 281.893 726.55 291.985 715.386L293.144 715.456L294.43 714.216Z" fill="#E6E7E7"/>
<path d="M294.43 714.216C294.977 715.427 295.275 715.782 295.997 716.87L297.057 717.074C300.023 713.85 303.746 703.233 309.865 696.028L310.018 698.862L310.433 699.049C306.145 703.589 300.593 720.141 296.263 720.427C293.573 718.273 293.788 717.354 291.985 715.386L293.144 715.456L294.43 714.216Z" fill="#66686D"/>
<path d="M183.398 616.918C194.194 616.802 203.468 617.791 214.192 618.81C214.201 622.267 214.407 633.622 212.919 636.224C202.699 639.914 194.095 638.89 183.535 637.639L183.398 616.918Z" fill="#E6E7E7"/>
<path d="M170.287 617.244C173.299 616.918 177.828 616.976 180.965 616.93C181.127 623.676 181.217 630.427 181.236 637.179C172.572 638.843 168.832 638.803 160.084 638.413L157.743 638.028C151.572 637.027 150.541 634.973 150.289 628.629C150.167 625.556 149.877 622.285 149.602 619.206L170.287 617.244Z" fill="#E6E7E7"/>
<path d="M207.377 677.548L208.253 678.398C209.2 685.313 206.747 696.01 202.775 701.767C197.779 709.001 194.059 710.998 185.818 712.732C184.27 710.887 184.542 685.121 184.542 680.814C194.253 681.052 198.326 680.744 207.377 677.548Z" fill="#E6E7E7"/>
<path d="M158.375 677.112C168.377 680.418 171.843 680.843 182.126 680.866C182.448 691.511 182.859 702.145 183.358 712.779C163.306 709.048 159.74 695.9 158.375 677.112Z" fill="#E6E7E7"/>
<path d="M203.793 523.466C219.395 528.534 226 530.724 238.038 542.285L232.703 543.824C229.732 545.216 226.748 546.583 223.753 547.925C214.893 546.109 210.329 546.018 201.396 545.992C201.784 538.472 202.841 530.939 203.793 523.466Z" fill="#E6E7E7"/>
<path d="M211.641 639.146L212.508 639.227C213.738 641.486 211.815 652.201 211.383 655.315C202.205 659.389 194.338 658.918 184.687 658.26C183.363 656.508 183.586 642.778 183.53 639.484C193.119 641.061 202.176 641.684 211.641 639.146Z" fill="#E6E7E7"/>
<path d="M151.667 638.517C162.365 641.759 170.458 641.294 181.501 639.39C181.726 645.502 181.649 651.84 181.65 657.975C171.695 659.145 163.885 659.29 154.422 655.46C153.28 649.89 152.507 644.151 151.667 638.517Z" fill="#E6E7E7"/>
<path d="M209.594 658.324L210.196 658.365L210.733 659.127C210.703 663.812 209.252 670.273 208.188 674.912C198.941 678.765 195.208 678.846 185.306 679.073C183.353 677.7 183.996 663.37 184 660.239C193.466 660.891 200.57 661.496 209.594 658.324Z" fill="#E6E7E7"/>
<path d="M155.064 657.882C165.174 660.908 171.443 661.182 181.824 660.012C182.14 666.181 182.085 672.258 182.077 678.433C174.455 679.958 165.339 677.595 158.175 675.011C157.015 669.324 155.979 663.615 155.064 657.882Z" fill="#E6E7E7"/>
<path d="M280.805 589.155L281.638 589.085C291.731 594.51 292.332 610.178 292.274 620.044C286.865 623.949 286.348 625.008 282.871 630.893L281.771 631.905C281.153 630.904 281.634 626.795 281.765 625.387C282.961 612.547 278.099 602.624 272.42 591.495C276.059 590.977 277.541 590.93 280.805 589.155Z" fill="#E6E7E7"/>
<path d="M200.497 520.793C202.427 523.165 199.605 541.978 199.208 546.002C195.193 546.027 190.502 546.386 186.441 546.595L185.962 545.899L190.781 527.483C194.339 525.215 197.116 523.314 200.497 520.793Z" fill="#E6E7E7"/>
<path d="M245.396 600.487C247.982 615.533 249.673 622.028 236.804 632.819L235.848 633.07C235.329 631.463 239.542 615.859 239.273 608.362L245.396 600.487Z" fill="#E2E2E3"/>
<path d="M173.103 528.341C179.581 528.899 181.65 528.879 188.095 528.231L184.156 543.724C183.208 546.265 183.147 547.286 180.474 548.052C176.407 546.351 174.162 532.804 173.103 528.341Z" fill="#E6E7E7"/>
<path d="M292.466 622.576C293.873 624.624 295.88 629.897 296.205 632.441L295.69 632.965L294.296 631.993C292.123 630.613 289.092 629.356 286.683 628.262C288.904 625.66 289.841 624.787 292.466 622.576Z" fill="#E2E2E3"/>
<path d="M711.158 674.708C710.221 671.297 709.045 669.057 707.368 665.995C696.563 646.282 686.479 624.776 684.616 602.1C683.19 584.767 682.206 566.429 690.461 550.527C694.554 542.644 698.839 535.036 703.025 527.217C705.785 522.038 708.894 515.523 707.31 509.515C705.791 504.096 702.14 498.551 699.811 493.444C686.526 464.317 706.472 440.498 736.874 440.363C755.341 440.282 766.799 452.058 769.192 469.835C770.152 476.844 769.116 483.698 769.896 490.667C770.28 494.079 774.286 497.96 774.012 501.661C773.745 506.598 770.874 506.516 767.818 509.379C764.651 513.285 769.826 523.005 765.256 527.192C762.176 530.015 756.954 529.116 753.164 528.856L752.791 542.004C767.137 554.731 778.227 570.708 785.132 588.597C790.884 603.316 788.212 608.636 785.767 622.936C784.876 628.175 784.934 637.964 784.55 643.639C783.869 653.871 782.495 664.045 780.44 674.091C775.159 700.283 770.95 701.243 775.218 727.952C780.254 759.504 768.936 794.374 757.728 823.26C755.801 828.225 755.982 836.117 753.467 841.192C743.465 854.998 744.076 861.511 742.3 877.977C739.96 899.64 736.193 928.124 742.865 949.113C746.317 959.967 772.475 967.592 783.7 972.225C787.892 973.849 802.493 978.371 798.523 985.466C797.463 987.364 794.669 988.761 792.573 989.395C777.092 989.68 760.913 988.33 745.322 988.266C735.413 987.992 725.545 989.744 715.659 989.092C708.923 988.65 710.728 978.092 711.292 973.762C718.896 947.588 716.206 931.139 705.29 906.752C697.302 888.907 697.017 870.806 704.545 852.879C706.623 847.938 709.522 841.629 710.757 836.449L710.931 835.698C709.202 828.027 705.494 823.755 703.147 817.032C697.681 801.358 696.994 783.984 697.908 767.618C698.397 758.806 703.811 743.661 703.194 737.602C701.855 724.495 694.083 716.323 697.564 700.696C700.202 688.863 707.782 685.551 710.914 675.505L711.158 674.708Z" fill="#595A5E"/>
<path d="M716.963 732.143C718.238 729.972 721.283 727.772 723.35 726.072C723.751 736.805 724.345 748.987 725.352 759.65C726.226 768.84 725.166 785.015 726.814 793.111C731.582 816.485 734.149 823.272 723.652 846.506L723.897 846.564C731.058 833.731 731.5 830.087 732.339 815.071C738.388 824.366 742.51 826.548 753.694 827.352C752.483 837.607 750.515 847.478 738.871 849.12C734.737 849.702 731.786 864.864 731.401 868.717C730.062 882.097 724.828 915.745 736.67 924.597C737.276 937.734 736.484 948.146 746.049 958.245C753.88 966.509 792.876 975.985 795.967 982.539C795.525 986.124 789.883 986.444 786.885 986.479C772.277 986.665 757.705 984.896 743.074 985.228C736.094 985.239 721.749 986.892 716.538 986.38C710.105 982.23 717.382 964.688 718.209 957.511C719.088 949.892 716.788 937.286 719.041 931.139L717.359 930.039C715.438 927.863 714.238 920.529 713.679 917.526L711.869 916.059L707.986 905.879C697.512 878.157 701.581 865.62 713.528 839.167L714.803 837.316C713.423 832.753 710.215 826.409 709.429 822.643C709.109 821.898 708.917 821.822 708.358 821.182C700.504 811.398 699.317 777.827 701.308 765.034C702.647 756.431 705.232 747.34 706.291 738.411C709.202 736.433 711.653 734.855 714.687 733.068L716.963 732.143Z" fill="#E6E7E7"/>
<path d="M706.291 738.411C709.202 736.433 711.653 734.855 714.687 733.068C725.137 752.793 723.128 784.724 716.719 805.595C715.03 811.09 712.614 817.172 708.358 821.182C700.504 811.398 699.317 777.827 701.308 765.034C702.647 756.431 705.232 747.34 706.291 738.411Z" fill="#E6E7E7"/>
<path d="M711.869 916.059L707.986 905.879C697.512 878.157 701.581 865.62 713.528 839.167C725.824 869.357 729.742 897.481 717.586 929.58C717.51 929.731 717.435 929.888 717.359 930.039C715.438 927.863 714.238 920.529 713.679 917.526L711.869 916.059Z" fill="#E6E7E7"/>
<path d="M711.869 916.059C711.95 913.521 712.492 904.226 711.234 902.498H709.412C716.014 890.904 715.933 874.595 716.678 861.226C718.448 883.64 711.816 897.312 713.679 917.526L711.869 916.059Z" fill="#66686D"/>
<path d="M714.803 837.316C728.048 861.412 731.401 906.211 719.041 931.139L717.359 930.039C717.435 929.888 717.51 929.731 717.586 929.58C729.742 897.481 725.824 869.357 713.528 839.167L714.803 837.316Z" fill="#515357"/>
<path d="M714.687 733.068L716.963 732.143C726.907 754.999 725.469 788.315 716.899 811.689C715.636 815.135 712.614 820.641 709.429 822.643C709.109 821.898 708.917 821.822 708.358 821.182C712.614 817.172 715.03 811.09 716.719 805.595C723.129 784.724 725.137 752.793 714.687 733.068Z" fill="#515357"/>
<path d="M736.269 443.181C765.716 443.509 767.789 467.969 766.974 491.105C766.945 491.994 770.17 497.577 770.688 499.351C773.261 504.73 763.859 505.822 763.97 509.386C764.499 526.155 765.961 529.32 747.476 523.963C743.36 522.769 740.041 522.285 735.669 519.158C731.908 516.361 726.692 509.125 722.57 510.147C721.184 511.76 721.3 513.394 721.062 515.592C717.109 515.605 714.966 515.421 711.025 514.932C710.664 504.987 704.05 498.012 700.877 488.698C691.87 462.267 710.169 444.506 736.269 443.181Z" fill="#E6E7E7"/>
<path d="M761.123 712.982C763.684 713.163 767.707 713.663 770.019 713.163C776.557 744.831 772.72 775.993 760.82 805.508C758.264 811.852 756.191 819.494 753.525 825.798L744.635 823.405L743.872 823.289C726.907 814.169 728.287 783.024 727.524 765.843C726.988 751.944 726.243 738.051 725.294 724.175C727.681 722.126 729.556 721.038 732.222 719.391C728.269 736.7 728.211 756.897 753.962 751.053C760.174 749.645 764.709 745.78 767.789 740.169C768.179 731.375 766.071 720.415 761.123 712.982Z" fill="#E6E7E7"/>
<path d="M743.872 823.289C743.348 820.815 738.475 816.73 737.072 812.102C731.85 794.874 737.619 775.778 744.734 759.999C744.862 763.963 739.255 776.168 738.324 781.092C736.263 791.976 734.906 804.094 739.337 814.605C740.245 816.764 744.46 821.741 744.635 823.405L743.872 823.289Z" fill="#66686D"/>
<path d="M705.75 584.144C711.927 588.847 715.438 589.72 722.779 591.437C723.373 592.362 723.938 593.305 724.479 594.266C728.665 601.739 731.576 610.859 729.218 619.334C731.53 618.251 731.227 619.229 733.829 618.298C737.515 627.727 738.522 627.872 745.223 634.379L744.606 636.312C744.419 640.06 745.229 650.042 744.303 651.881L745.473 653.074C741.625 661.63 743.54 670.465 741.904 675.762C741.881 681.006 742.597 685.965 744.425 690.912C743.045 693.129 742.935 692.606 740.437 694.759C739.18 699.648 738.487 703.146 735.43 707.261C730.557 701.132 724.532 694.049 721.69 686.756C716.125 672.491 713.895 657.23 712.649 642.062L712.678 638.739C711.129 633.82 707.037 629.315 705.907 625.509C702.56 614.241 704.964 596.332 705.75 584.144Z" fill="#E6E7E7"/>
<path d="M712.649 642.062C727.967 645.863 731.46 664.29 737.806 675.628C740.024 674.464 738.906 675.197 741.904 675.762C741.881 681.006 742.597 685.965 744.425 690.912C743.045 693.129 742.935 692.606 740.437 694.759C739.18 699.648 738.487 703.146 735.43 707.261C730.557 701.132 724.532 694.049 721.69 686.756C716.125 672.491 713.895 657.23 712.649 642.062Z" fill="#E6E7E7"/>
<path d="M737.806 675.628C740.024 674.464 738.906 675.197 741.904 675.762C741.881 681.006 742.597 685.965 744.425 690.912C743.045 693.129 742.935 692.606 740.437 694.759C740.984 686.779 739.884 683.229 737.806 675.628Z" fill="#515357"/>
<path d="M712.678 638.739C714.308 639.996 715.263 640.502 717.254 640.648C724.66 636.125 718.325 623.664 714.885 618.111C712.637 614.474 704.853 607.355 705.925 603.048C706.67 604.405 709.558 609.887 710.239 610.632C719.851 621.19 720.829 621.871 720.747 636.166C724.328 630.951 726.814 625.154 729.218 619.334C731.53 618.251 731.227 619.229 733.829 618.298C737.515 627.727 738.522 627.872 745.223 634.379L744.606 636.312C744.419 640.06 745.229 650.042 744.303 651.881L745.473 653.074C741.625 661.63 743.54 670.465 741.904 675.762C738.906 675.197 740.024 674.464 737.806 675.628C731.46 664.29 727.967 645.863 712.649 642.062L712.678 638.739Z" fill="#E6E7E7"/>
<path d="M712.678 638.739C714.308 639.996 715.263 640.502 717.254 640.648C724.66 636.125 718.325 623.664 714.885 618.111C712.637 614.474 704.853 607.355 705.925 603.048C706.67 604.405 709.558 609.887 710.239 610.632C719.851 621.19 720.829 621.871 720.747 636.166C724.328 630.951 726.814 625.154 729.218 619.334C731.53 618.251 731.227 619.229 733.829 618.298C737.515 627.727 738.522 627.872 745.223 634.379L744.606 636.312C737.206 631.463 734.545 627.098 731.757 618.798C729.137 626.743 724.823 635.782 719.822 642.487C729.882 650.723 736.274 663.382 739.727 675.756C740.158 669.982 740.431 655.874 743.855 652.079L744.303 651.881L745.473 653.074C741.625 661.63 743.54 670.465 741.904 675.762C738.906 675.197 740.024 674.464 737.806 675.628C731.46 664.29 727.967 645.863 712.649 642.062L712.678 638.739Z" fill="#66686D"/>
<path d="M757.21 603.601C765.25 610.33 771.206 614.09 782.151 614.031C782.967 614.026 782.699 614.002 783.427 614.171L784.125 615.754C781.4 630.637 782.169 645.234 779.799 660.78C778.35 670.034 776.51 679.225 774.28 688.322C773.122 693.025 770.636 701.813 769.96 706.149L769.687 708.774L769.908 709.63C770.187 711.324 770.152 711.428 770.019 713.163C767.707 713.663 763.684 713.163 761.123 712.982C760.249 712.069 759.615 710.433 759.067 709.252C755.673 702.884 753.909 694.922 755.702 687.862L756.331 685.918C754.649 683.73 754.328 675.011 753.408 671.041C751.388 662.328 747.883 652.923 747.266 644.151C746.754 636.899 752.494 629.403 754.689 622.383C756.733 615.841 756.861 613.187 756.948 606.418L757.21 603.601Z" fill="#E6E7E7"/>
<path d="M756.331 685.918C762.287 689.934 765.757 700.556 769.96 706.149L769.687 708.774L769.908 709.63C770.187 711.324 770.152 711.428 770.019 713.163C767.707 713.663 763.684 713.163 761.123 712.982C760.249 712.069 759.615 710.433 759.067 709.252C755.673 702.884 753.909 694.922 755.702 687.862L756.331 685.918Z" fill="#E2E2E3"/>
<path d="M756.331 685.918C762.287 689.934 765.757 700.556 769.96 706.149L769.687 708.774C764.604 703.647 761.53 694.8 755.702 687.862L756.331 685.918Z" fill="#66686D"/>
<path d="M759.068 709.252C761.711 711.19 765.868 711.277 769.029 710.986C769.564 710.323 769.64 710.392 769.908 709.63C770.187 711.324 770.152 711.428 770.019 713.163C767.707 713.663 763.684 713.163 761.123 712.982C760.249 712.069 759.615 710.433 759.068 709.252Z" fill="#66686D"/>
<path d="M757.21 603.601C765.25 610.33 771.206 614.09 782.151 614.031C782.967 614.026 782.699 614.002 783.427 614.171L784.125 615.754C783.24 615.911 782.355 616.051 781.465 616.167C771.975 617.384 763.987 611.889 756.948 606.418L757.21 603.601Z" fill="#66686D"/>
<path d="M719.146 545.647C722.639 544.796 732.106 543.457 734.906 546.048C736.263 545.501 736.164 545.526 737.625 545.582C752.174 549.436 751.918 562.536 749.613 575.26C748.646 580.601 743.453 586.071 737.934 586.909L736.699 585.855C733.253 590.314 724.782 591.198 720.701 586.868C720.101 587.299 719.379 587.991 718.774 588.038L718.343 587.916C705.179 584.057 698.432 573.129 702.274 559.17C704.19 552.202 709.86 548.766 716.055 545.611L719.146 545.647Z" fill="#E6E7E7"/>
<path d="M716.055 545.611C715.473 548.391 714.11 551.681 713.278 554.284C709.831 565.065 710.623 575.884 717.277 585.25C717.86 586.065 718.477 587.043 718.774 588.038L718.343 587.916C705.179 584.057 698.432 573.129 702.274 559.17C704.19 552.202 709.86 548.766 716.055 545.611Z" fill="#E6E7E7"/>
<path d="M734.906 546.048C736.263 545.501 736.164 545.526 737.625 545.582C752.174 549.436 751.918 562.536 749.613 575.261C748.646 580.601 743.453 586.071 737.934 586.909L736.699 585.855C742.714 570.946 745.432 560.024 734.906 546.048Z" fill="#E6E7E7"/>
<path d="M734.906 546.048C736.263 545.501 736.164 545.526 737.625 545.582C737.247 547.768 739.046 549.453 740.094 552.594C743.127 561.707 744.565 568.773 741.206 578.259C740.653 579.825 738.219 585.739 737.934 586.909L736.699 585.855C742.714 570.946 745.432 560.024 734.906 546.048Z" fill="#9A9B9D"/>
<path d="M716.055 545.611L719.146 545.647C708.527 557.794 710.867 575.039 720.701 586.868C720.101 587.299 719.379 587.991 718.774 588.038C718.477 587.043 717.86 586.065 717.277 585.25C710.623 575.884 709.831 565.065 713.278 554.284C714.11 551.681 715.473 548.391 716.055 545.611Z" fill="#9A9B9D"/>
<path d="M750.259 581.797C752.826 573.84 752.652 573.699 753.141 565.758C753.49 560.063 749.019 546.899 750.981 544.701C764.36 551.725 795.787 602.146 783.427 614.171C782.699 614.002 782.967 614.025 782.152 614.031C771.206 614.09 765.25 610.33 757.21 603.601L750.259 581.797Z" fill="#E6E7E7"/>
<path d="M744.425 690.912C746.288 694.235 748.652 698.344 751.86 700.504L752.791 700.445L753.129 698.973C754.165 700.51 753.938 702.605 754.084 704.729C757.868 715.363 775.089 739.587 756.477 747.025C749.583 749.778 736.443 750.558 733.963 741.502C731.233 732.195 735.291 723.465 736.531 714.787C736.437 712.418 736.665 709.036 735.43 707.261C738.487 703.146 739.18 699.648 740.437 694.759C742.935 692.606 743.045 693.129 744.425 690.912Z" fill="#E6E7E7"/>
<path d="M744.425 690.912C746.288 694.235 748.652 698.344 751.86 700.504L752.791 700.445L753.129 698.973C754.165 700.51 753.938 702.605 754.084 704.729C747.901 700.544 746.247 699.805 742.981 692.798C741.637 701.493 740.536 702.192 737.078 710.328C736.81 710.963 736.699 713.92 736.531 714.787C736.437 712.418 736.664 709.036 735.43 707.261C738.487 703.146 739.18 699.648 740.437 694.759C742.935 692.606 743.045 693.129 744.425 690.912Z" fill="#66686D"/>
<path d="M714.331 673.265C717.248 681.11 718.087 686.919 722.366 694.305L723.309 694.986L723.047 695.603C724.619 697.227 725.783 698.112 726.441 700.253C729.632 704.997 733.334 707.54 734.004 713.151C732.298 717.487 711.001 732.725 706.012 736.124C705.034 729.856 702.047 723.337 700.691 717.191C697.803 704.095 701.523 696.627 708.172 686.075L708.201 685.755C709.01 684.702 708.929 684.632 710.116 684.102C713.016 680.668 713.4 677.583 714.331 673.265Z" fill="#E6E7E7"/>
<path d="M714.331 673.265C717.248 681.11 718.087 686.919 722.366 694.305C718.081 693.839 712.626 687.379 710.116 684.102C713.016 680.668 713.4 677.583 714.331 673.265Z" fill="#E2E2E3"/>
<path d="M708.172 686.075L708.201 685.755C709.01 684.702 708.929 684.632 710.116 684.102C712.626 687.379 718.081 693.839 722.366 694.305L723.309 694.986L723.047 695.603C724.619 697.227 725.783 698.112 726.441 700.253C718.57 693.834 717.109 695.638 708.172 686.075Z" fill="#66686D"/>
<path d="M700.563 538.206C702.42 542.352 703.054 545.834 705.657 549.437C694.525 555.611 699.189 573.31 703.66 582.165C701.785 597.339 700.405 609.73 702.676 624.91C699.386 623.379 694.316 621.743 690.584 620.178C686.473 605.516 684.593 577.039 689.204 562.458C691.667 554.67 696.627 545.611 700.563 538.206Z" fill="#E6E7E7"/>
<path d="M736.123 590.663C741.421 588.707 743.686 587.473 748.303 584.208C753.618 599.725 757.705 608.95 750.748 626.039C750.043 627.767 746.678 633.477 745.223 634.379C738.522 627.872 737.515 627.727 733.829 618.298C732.583 607.367 735.407 601.174 736.123 590.663Z" fill="#E6E7E7"/>
<path d="M723.909 511.829C728.869 515.61 731.955 519.445 737.771 523.378C740.903 531.992 748.553 539.709 747.86 547.451C742.143 543.828 735.75 542.367 729.003 542.681C726.761 534.195 722.028 519.94 723.909 511.829Z" fill="#E6E7E7"/>
<path d="M740.542 849.655C742.597 849.847 742.743 849.48 743.849 850.592C743.045 852.524 741.363 856.407 741.194 858.519C739.768 876.458 736.699 894.425 736.274 912.398C736.199 915.558 736.81 918.894 735.815 921.798C728.275 910.437 731.116 858.869 740.542 849.655Z" fill="#E6E7E7"/>
<path d="M691.428 623.088C695.596 624.595 699.724 626.202 703.811 627.907C711.525 639.35 710.961 655.088 713.225 669.481C707.665 665.192 693.931 630.875 691.428 623.088Z" fill="#E2E2E3"/>
<path d="M741.904 675.762C743.54 670.465 741.625 661.63 745.473 653.074C749.292 663.335 751.633 674.08 752.43 684.998C752.669 688.665 752.64 695.894 753.129 698.973L752.791 700.445L751.86 700.504C748.652 698.344 746.288 694.235 744.425 690.912C742.597 685.965 741.881 681.006 741.904 675.762Z" fill="#E6E7E7"/>
<path d="M702.164 535.557C703.706 532.023 709.715 518.354 712.824 517.276C716.235 519.92 713.656 539.055 713.668 544.285C710.681 545.607 709.441 546.026 706.978 548.194C706.192 549.276 706.647 549.08 705.657 549.437C703.054 545.834 702.42 542.352 700.563 538.206L702.164 535.557Z" fill="#E6E7E7"/>
<path d="M702.164 535.557C703.054 538.265 705.482 546.304 706.978 548.194C706.192 549.276 706.647 549.08 705.657 549.437C703.054 545.834 702.42 542.352 700.563 538.206L702.164 535.557Z" fill="#66686D"/>
<path d="M717.318 517.321C719.164 517.454 719.472 517.369 721.021 518.255C721.976 523.122 726.837 539.959 725.678 542.361L724.223 542.352C721.388 542.724 718.494 543.471 715.7 544.118C715.874 535.533 716.678 525.917 717.318 517.321Z" fill="#E6E7E7"/>
<path d="M740.862 524.762C743.401 525.145 747.889 526.467 750.463 527.168C750.043 530.802 749.968 535.294 749.805 539.008L748.931 538.807C746.247 535.218 742.504 528.879 740.862 524.762Z" fill="#E2E2E3"/>
<path d="M731.087 591.495L732.688 591.489C734.254 594.12 732.449 601.5 731.704 604.608L731.006 604.847C730.161 601.355 726.063 593.864 727.547 591.798L731.087 591.495Z" fill="#E6E7E7"/>
<path d="M783.7 972.225C784.94 971.707 786.268 971.166 787.618 971.026C796.34 970.124 840.476 975.886 848.906 979.174C853.203 980.851 859.025 982.265 861.429 986.2C860.876 988.679 851.095 991.537 847.975 992.387C826.975 998.096 803.547 999.295 781.942 1000.48C773.832 1000.92 765.914 1000.3 759.003 1001.05C748.926 1003.23 682.188 998.597 672.32 995.745C665.596 995.594 645.504 992.194 641.866 986.607C640.899 974.914 700.51 972.755 708.818 972.557C709.249 972.545 710.838 973.476 711.292 973.762C710.728 978.092 708.923 988.65 715.659 989.092C725.545 989.744 735.413 987.992 745.322 988.266C760.913 988.33 777.092 989.68 792.573 989.395C794.669 988.761 797.463 987.364 798.523 985.466C802.493 978.371 787.892 973.849 783.7 972.225Z" fill="#CFD0D1"/>
<path d="M672.32 995.745C665.596 995.594 645.504 992.194 641.866 986.607C640.899 974.914 700.51 972.755 708.818 972.557C709.249 972.545 710.838 973.476 711.292 973.762C710.728 978.092 708.923 988.65 715.659 989.092C725.545 989.744 735.413 987.992 745.322 988.266C760.913 988.33 777.092 989.68 792.573 989.395C775.171 997.817 711.595 992.666 706 996.21C704.76 996.99 704.12 995.413 702.798 996.571L703.305 997.264C706.169 997.514 714.611 997.229 716.072 998.09L715.49 999.115L714.559 998.149C708.451 1000.34 679.219 995.116 672.32 995.745Z" fill="#CDCECE"/>
<path d="M672.32 995.745C679.219 995.116 708.451 1000.34 714.559 998.149L715.49 999.115L716.072 998.09C729.562 997.829 748.378 998.702 762.357 998.876L762.537 999.796C761.099 1000.76 760.668 1000.74 759.003 1001.05C748.926 1003.23 682.188 998.597 672.32 995.745Z" fill="#E2E2E3"/>
<path d="M839.789 1112.55C842.519 1114.97 844.988 1122.94 848.039 1126.04C852.923 1131.02 858.029 1133.24 864.317 1135.67C850.862 1143.32 847.363 1143.04 840.202 1159.37C839.102 1158.58 837.874 1155.88 837.204 1154.56C831.79 1143.92 826.09 1140.36 815.43 1136.19C829.892 1129.64 832.605 1126.74 839.789 1112.55Z" fill="#E2E2E3"/>
</g>
<defs>
<clipPath id="clip0_1_3">
<rect width="896" height="1192" fill="white"/>
</clipPath>
</defs>
</svg>
